<svg width="480" height="450" viewBox="0 0 909 768" fill="none" xmlns="http://www.w3.org/2000/svg">
<g id="Group 1">
<path id="bg" d="M907.827 437.807C880.176 94.9854 468.143 16.878 327.477 41.0477C43.2601 89.8832 -20.6613 413.659 5.27313 555.53C37.6911 732.868 353.735 767.94 428.524 767.94C465.524 767.94 935.477 780.63 907.827 437.807Z" fill="white" fill-opacity="0.2"/>
<g id="hero 1">
<g id="hero">
<g id="ill">
<path id="Vector 2 2" d="M713.099 251.376C676.711 251.376 647.214 223.718 647.214 189.601C647.214 155.484 676.711 127.826 713.099 127.826C749.487 127.826 778.985 155.484 778.985 189.601C778.985 223.718 749.487 251.376 713.099 251.376Z" fill="#4A4747"/>
<path id="Vector 3 2" d="M703.466 124.56C709.544 123.847 715.692 123.847 721.769 124.56C735.307 126.197 748.05 131.379 758.486 139.488C768.923 147.598 776.617 158.296 780.651 170.312C782.487 175.788 783.528 181.465 783.742 187.195C783.774 187.991 783.794 188.795 783.794 189.602C783.774 206.988 776.269 223.659 762.926 235.951C749.581 248.245 731.49 255.16 712.618 255.178C711.103 255.178 709.588 255.132 708.092 255.049C704.585 254.845 701.097 254.399 697.66 253.716C681.251 250.465 666.616 241.975 656.339 229.748C646.064 217.518 640.808 202.336 641.504 186.884C642.199 171.433 648.798 156.704 660.134 145.3C671.473 133.895 686.82 126.55 703.466 124.56ZM690.341 249.912H690.351C696.083 251.715 702.049 252.809 708.092 253.164C709.588 253.258 711.103 253.305 712.618 253.305C730.949 253.284 748.522 246.567 761.483 234.625C774.446 222.68 781.737 206.491 781.76 189.602C781.76 188.795 781.74 187.991 781.71 187.195C781.01 170.735 773.428 155.162 760.55 143.738C747.672 132.314 730.496 125.92 712.618 125.898C696.237 125.899 680.389 131.258 667.897 141.021C655.405 150.782 647.079 164.313 644.405 179.204C641.73 194.093 644.878 209.373 653.291 222.322C661.705 235.273 674.835 245.051 690.341 249.912Z" fill="white"/>
<path id="Vector 4 2" d="M710.695 132.578H712.618V144.933H710.695V132.578Z" fill="white"/>
<path id="Vector 5 2" d="M759.387 150.298L760.354 151.888L750.493 160.478L749.524 158.886L759.387 150.298Z" fill="white"/>
<path id="Vector 6 2" d="M776.099 187.7V189.601H763.595V187.7H776.099Z" fill="white"/>
<path id="Vector 7 2" d="M756.863 228.328L755.66 229.517L747.244 221.202L748.447 220.013L756.863 228.328Z" fill="white"/>
<path id="Vector 8 2" d="M677.992 159.663L676.548 161.09L666.45 151.11L667.895 149.685L677.992 159.663Z" fill="white"/>
<path id="Vector 9 2" d="M663.565 187.7V189.601H650.099V187.7H663.565Z" fill="white"/>
<path id="Vector 10 2" d="M674.745 220.013L676.069 221.202L666.813 229.517L665.489 228.328L674.745 220.013Z" fill="white"/>
<path id="Vector 11 2" d="M711.657 234.269H713.58V246.624H711.657V234.269Z" fill="white"/>
<path id="Vector 12 2" d="M703 107.868H720.313V125.926H703V107.868Z" fill="white"/>
<path id="Vector 12 3" d="M660.602 127.315L665.212 123.475L674.812 135.001L670.202 138.841L660.602 127.315Z" fill="white"/>
<path id="Vector 12 4" d="M756.491 121.133L761.137 124.929L751.646 136.545L747 132.749L756.491 121.133Z" fill="white"/>
<path id="Vector 13" d="M711.656 111.67C699.437 111.67 689.534 108.052 689.534 103.592C689.534 99.13 699.437 95.5134 711.656 95.5134C723.874 95.5134 733.779 99.13 733.779 103.592C733.779 108.052 723.874 111.67 711.656 111.67Z" fill="white"/>
<path id="Vector 31" d="M665.083 128.789C661.9 131.44 657.457 131.352 655.16 128.594C652.862 125.836 653.58 121.451 656.763 118.8C659.946 116.149 664.388 116.236 666.686 118.995C668.983 121.752 668.265 126.138 665.083 128.789Z" fill="white"/>
<path id="Vector 32" d="M755.896 125.812C752.688 123.191 751.93 118.813 754.201 116.033C756.472 113.253 760.914 113.124 764.121 115.745C767.329 118.366 768.088 122.744 765.816 125.524C763.546 128.304 759.103 128.433 755.896 125.812Z" fill="white"/>
<path id="clock-hand" d="M708.771 154.437H714.542V189.601H708.771V154.437Z" fill="#F81717"/>
<path id="Vector 14 2" d="M711.656 199.105C706.876 199.105 703 194.85 703 189.601C703 184.352 706.876 180.097 711.656 180.097C716.437 180.097 720.313 184.352 720.313 189.601C720.313 194.85 716.437 199.105 711.656 199.105Z" fill="#F81717"/>
<path id="Vector 15 2" d="M627.015 251.376H804.954V253.277H627.015V251.376Z" fill="white"/>
<path id="Vector 16 2" d="M393.29 276.568C393.29 279.976 390.233 282.739 386.466 282.739H79.8244C76.0555 282.739 73 279.976 73 276.568V58.9152C73 55.5081 76.0555 52.7462 79.8244 52.7462H386.466C390.233 52.7462 393.29 55.5081 393.29 58.9152V276.568ZM73.7607 275.729C73.7607 279.137 76.8162 281.898 80.585 281.898H385.705C389.473 281.898 392.529 279.137 392.529 275.729V59.7545C392.529 56.3475 389.473 53.5856 385.705 53.5856H80.585C76.8162 53.5856 73.7607 56.3475 73.7607 59.7545V275.729Z" fill="white"/>
<path id="Vector 18 2" d="M266.328 158.239H211.504V165.842H266.328V158.239Z" fill="#F4EEEE"/>
<path id="Vector 19" d="M348.084 158.239H293.26V165.842H348.084V158.239Z" fill="#F4EEEE"/>
<path id="Vector 20" d="M266.328 200.055H211.504V207.658H266.328V200.055Z" fill="#F4EEEE"/>
<path id="Vector 21" d="M355.779 179.147H212.466V186.75H355.779V179.147Z" fill="#F4EEEE"/>
<path id="Vector 22" d="M375.977 251.376H93.1985V276.086H375.977V251.376Z" fill="#6BDA7E"/>
<path id="Vector 23" d="M372.13 88.8607H199.962V140.181H372.13V88.8607Z" fill="#6BDA7E"/>
<path id="Vector 24" d="M205.753 109.588C205.452 109.588 205.204 109.498 204.999 109.317C204.794 109.137 204.69 108.914 204.69 108.65V96.4506C204.69 96.1742 204.794 95.9519 204.999 95.7836C205.204 95.6029 205.452 95.5134 205.753 95.5134C206.164 95.5134 206.476 95.6817 206.696 96.0167L212.774 106.741L218.687 96.0167C218.904 95.6817 219.218 95.5134 219.626 95.5134C219.928 95.5134 220.182 95.6029 220.386 95.7836C220.591 95.9519 220.691 96.1742 220.691 96.4506V108.65C220.691 108.914 220.583 109.137 220.365 109.317C220.16 109.498 219.914 109.588 219.626 109.588C219.327 109.588 219.077 109.498 218.872 109.317C218.669 109.137 218.564 108.914 218.564 108.65V99.6943L213.611 108.578C213.379 108.891 213.074 109.047 212.693 109.047C212.242 109.047 211.915 108.86 211.71 108.488L206.818 99.8564V108.65C206.818 108.914 206.719 109.137 206.513 109.317C206.308 109.498 206.053 109.588 205.753 109.588ZM232.301 109.66C231.169 109.66 230.16 109.449 229.274 109.029C228.401 108.596 227.715 108.008 227.208 107.262C226.717 106.506 226.471 105.641 226.471 104.667C226.471 103.682 226.704 102.818 227.168 102.072C227.645 101.315 228.299 100.727 229.131 100.307C229.964 99.8734 230.918 99.6573 231.998 99.6573C233.06 99.6573 233.975 99.8672 234.739 100.289C235.502 100.696 236.081 101.267 236.477 102.001C236.886 102.722 237.089 103.556 237.089 104.505C237.089 104.734 237.003 104.927 236.825 105.083C236.648 105.226 236.421 105.299 236.147 105.299H228.371C228.523 106.128 228.954 106.805 229.664 107.335C230.387 107.851 231.265 108.11 232.301 108.11C232.724 108.11 233.157 108.044 233.594 107.911C234.044 107.767 234.403 107.605 234.675 107.425C234.88 107.293 235.098 107.227 235.329 107.227C235.575 107.215 235.788 107.275 235.968 107.406C236.2 107.587 236.322 107.786 236.334 108.002C236.35 108.218 236.239 108.403 236.007 108.561C235.544 108.885 234.962 109.149 234.267 109.353C233.584 109.557 232.929 109.66 232.301 109.66ZM231.998 101.207C230.988 101.207 230.173 101.454 229.56 101.947C228.946 102.439 228.558 103.075 228.396 103.857H235.208C235.084 103.088 234.752 102.456 234.206 101.964C233.662 101.459 232.925 101.207 231.998 101.207ZM243.234 109.588C242.551 109.588 242.21 109.287 242.21 108.686V100.631C242.21 100.029 242.551 99.7298 243.234 99.7298C243.916 99.7298 244.258 100.029 244.258 100.631V100.973C244.666 100.553 245.162 100.222 245.748 99.9814C246.347 99.7421 246.998 99.6217 247.696 99.6217C248.512 99.6217 249.118 99.7421 249.514 99.9814C249.923 100.21 250.082 100.486 249.988 100.811C249.918 101.064 249.781 101.232 249.577 101.315C249.372 101.388 249.133 101.4 248.859 101.352C247.986 101.195 247.203 101.184 246.508 101.315C245.811 101.448 245.257 101.694 244.849 102.055C244.452 102.415 244.258 102.872 244.258 103.424V108.686C244.258 109.287 243.916 109.588 243.234 109.588ZM258.873 109.66C257.766 109.66 256.795 109.449 255.948 109.029C255.102 108.596 254.433 108.008 253.943 107.262C253.466 106.506 253.224 105.641 253.224 104.667C253.224 103.682 253.466 102.818 253.943 102.072C254.433 101.315 255.102 100.727 255.948 100.307C256.795 99.8734 257.766 99.6573 258.873 99.6573C259.963 99.6573 260.933 99.8734 261.779 100.307C262.624 100.727 263.287 101.315 263.766 102.072C264.256 102.818 264.503 103.682 264.503 104.667C264.503 105.641 264.261 106.506 263.782 107.262C263.307 108.008 262.646 108.596 261.801 109.029C260.954 109.449 259.978 109.66 258.873 109.66ZM258.873 108.038C259.583 108.038 260.209 107.894 260.755 107.605C261.301 107.317 261.725 106.92 262.023 106.416C262.338 105.912 262.497 105.328 262.497 104.667C262.497 104.006 262.338 103.424 262.023 102.92C261.725 102.402 261.301 102.001 260.755 101.712C260.209 101.423 259.583 101.28 258.873 101.28C258.163 101.28 257.535 101.423 256.991 101.712C256.444 102.001 256.016 102.402 255.703 102.92C255.389 103.424 255.231 104.006 255.231 104.667C255.231 105.328 255.389 105.912 255.703 106.416C256.016 106.92 256.444 107.317 256.991 107.605C257.535 107.894 258.163 108.038 258.873 108.038ZM279.782 109.588C279.481 109.588 279.23 109.498 279.025 109.317C278.823 109.137 278.718 108.914 278.718 108.65V96.4506C278.718 96.1742 278.823 95.9519 279.025 95.7836C279.23 95.6029 279.481 95.5134 279.782 95.5134H283.488C284.662 95.5134 285.726 95.6864 286.681 96.0353C287.648 96.3718 288.485 96.8582 289.195 97.4958C289.904 98.1195 290.45 98.859 290.832 99.7112C291.214 100.565 291.405 101.508 291.405 102.541C291.405 103.574 291.214 104.524 290.832 105.388C290.45 106.242 289.904 106.986 289.195 107.624C288.485 108.247 287.648 108.734 286.681 109.083C285.726 109.419 284.662 109.588 283.488 109.588H279.782ZM280.845 107.929H283.488C284.634 107.929 285.643 107.701 286.517 107.244C287.404 106.776 288.099 106.14 288.603 105.334C289.109 104.517 289.357 103.586 289.357 102.541C289.357 101.484 289.109 100.553 288.603 99.7483C288.099 98.9424 287.404 98.3125 286.517 97.8555C285.643 97.3985 284.634 97.17 283.488 97.17H280.845V107.929ZM298.245 109.588C297.944 109.588 297.695 109.503 297.49 109.336C297.299 109.155 297.203 108.933 297.203 108.669V100.648C297.203 100.372 297.299 100.15 297.49 99.9814C297.695 99.8147 297.944 99.7298 298.245 99.7298C298.558 99.7298 298.813 99.8147 299.005 99.9814C299.196 100.15 299.291 100.372 299.291 100.648V108.669C299.291 108.933 299.196 109.155 299.005 109.336C298.813 109.503 298.558 109.588 298.245 109.588ZM298.245 98.1257C297.876 98.1257 297.558 98.0115 297.285 97.7829C297.026 97.5436 296.894 97.2611 296.894 96.9369C296.894 96.6127 297.026 96.3363 297.285 96.1078C297.558 95.8669 297.876 95.7465 298.245 95.7465C298.613 95.7465 298.928 95.8669 299.186 96.1078C299.458 96.3363 299.595 96.6127 299.595 96.9369C299.595 97.2611 299.458 97.5436 299.186 97.7829C298.928 98.0115 298.613 98.1257 298.245 98.1257ZM310.291 109.66C309.267 109.66 308.362 109.449 307.571 109.029C306.793 108.596 306.181 108.008 305.73 107.262C305.279 106.506 305.052 105.641 305.052 104.667C305.052 103.682 305.292 102.818 305.772 102.072C306.263 101.315 306.93 100.727 307.776 100.307C308.621 99.8734 309.595 99.6573 310.7 99.6573C311.791 99.6573 312.76 99.8734 313.605 100.307C314.453 100.727 315.114 101.315 315.592 102.072C316.083 102.818 316.33 103.682 316.33 104.667V108.561C316.33 109.509 316.089 110.369 315.611 111.138C315.134 111.919 314.465 112.536 313.605 112.993C312.76 113.45 311.778 113.679 310.66 113.679C309.692 113.679 308.786 113.511 307.94 113.174C307.094 112.838 306.375 112.345 305.788 111.697C305.611 111.491 305.542 111.281 305.584 111.065C305.639 110.849 305.774 110.675 305.993 110.543C306.239 110.398 306.494 110.35 306.753 110.398C307.024 110.446 307.244 110.566 307.408 110.759C307.776 111.167 308.241 111.485 308.799 111.714C309.36 111.942 309.991 112.056 310.7 112.056C311.355 112.056 311.955 111.919 312.501 111.643C313.061 111.366 313.505 110.957 313.833 110.417C314.16 109.876 314.324 109.216 314.324 108.434V107.551C313.901 108.2 313.342 108.717 312.645 109.101C311.95 109.473 311.163 109.66 310.291 109.66ZM310.7 108.038C311.409 108.038 312.037 107.894 312.583 107.605C313.129 107.317 313.551 106.92 313.851 106.416C314.165 105.912 314.324 105.328 314.324 104.667C314.324 104.006 314.165 103.424 313.851 102.92C313.551 102.402 313.129 102.001 312.583 101.712C312.037 101.423 311.409 101.28 310.7 101.28C309.991 101.28 309.364 101.423 308.816 101.712C308.273 102.001 307.845 102.402 307.531 102.92C307.217 103.424 307.057 104.006 307.057 104.667C307.057 105.328 307.217 105.912 307.531 106.416C307.845 106.92 308.273 107.317 308.816 107.605C309.364 107.894 309.991 108.038 310.7 108.038ZM323.142 109.588C322.843 109.588 322.587 109.503 322.382 109.336C322.191 109.155 322.096 108.933 322.096 108.669V100.648C322.096 100.372 322.191 100.15 322.382 99.9814C322.587 99.8147 322.843 99.7298 323.142 99.7298C323.455 99.7298 323.705 99.8147 323.896 99.9814C324.088 100.15 324.183 100.372 324.183 100.648V108.669C324.183 108.933 324.088 109.155 323.896 109.336C323.705 109.503 323.455 109.588 323.142 109.588ZM323.142 98.1257C322.774 98.1257 322.45 98.0115 322.178 97.7829C321.918 97.5436 321.791 97.2611 321.791 96.9369C321.791 96.6127 321.918 96.3363 322.178 96.1078C322.45 95.8669 322.774 95.7465 323.142 95.7465C323.51 95.7465 323.825 95.8669 324.083 96.1078C324.358 96.3363 324.492 96.6127 324.492 96.9369C324.492 97.2611 324.358 97.5436 324.083 97.7829C323.825 98.0115 323.51 98.1257 323.142 98.1257ZM334.592 109.588C333.91 109.588 333.297 109.438 332.751 109.137C332.205 108.825 331.777 108.403 331.464 107.875C331.149 107.347 330.992 106.751 330.992 106.091V101.64H330.049C329.764 101.64 329.53 101.569 329.353 101.423C329.176 101.28 329.089 101.099 329.089 100.883C329.089 100.642 329.176 100.451 329.353 100.307C329.53 100.162 329.764 100.089 330.049 100.089H330.992V97.4958C330.992 97.2303 331.086 97.0141 331.276 96.8457C331.468 96.6775 331.715 96.5942 332.015 96.5942C332.316 96.5942 332.56 96.6775 332.751 96.8457C332.941 97.0141 333.038 97.2303 333.038 97.4958V100.089H334.779C335.067 100.089 335.298 100.162 335.475 100.307C335.651 100.451 335.739 100.642 335.739 100.883C335.739 101.099 335.651 101.28 335.475 101.423C335.298 101.569 335.067 101.64 334.779 101.64H333.038V106.091C333.038 106.572 333.188 106.974 333.486 107.3C333.787 107.624 334.157 107.786 334.592 107.786H335.288C335.532 107.786 335.739 107.869 335.901 108.038C336.079 108.206 336.17 108.422 336.17 108.686C336.17 108.95 336.052 109.168 335.821 109.336C335.601 109.503 335.315 109.588 334.961 109.588H334.592ZM345.857 109.66C344.86 109.66 343.969 109.444 343.178 109.01C342.386 108.566 341.761 107.971 341.294 107.227C340.844 106.469 340.618 105.617 340.618 104.667C340.618 103.718 340.864 102.865 341.355 102.109C341.859 101.352 342.536 100.756 343.383 100.324C344.242 99.8795 345.2 99.6573 346.265 99.6573C347.329 99.6573 348.283 99.8795 349.13 100.324C349.978 100.756 350.645 101.352 351.136 102.109C351.642 102.865 351.896 103.718 351.896 104.667V108.686C351.896 108.95 351.792 109.172 351.587 109.353C351.396 109.521 351.148 109.606 350.85 109.606C350.55 109.606 350.299 109.521 350.095 109.353C349.903 109.172 349.809 108.95 349.809 108.686V108.019C349.331 108.524 348.749 108.927 348.067 109.226C347.398 109.515 346.661 109.66 345.857 109.66ZM346.265 108.038C346.962 108.038 347.584 107.894 348.131 107.605C348.675 107.304 349.104 106.903 349.417 106.398C349.732 105.881 349.89 105.305 349.89 104.667C349.89 104.019 349.732 103.443 349.417 102.938C349.104 102.421 348.675 102.018 348.131 101.731C347.584 101.43 346.962 101.28 346.265 101.28C345.584 101.28 344.965 101.43 344.407 101.731C343.861 102.018 343.423 102.421 343.096 102.938C342.781 103.443 342.623 104.019 342.623 104.667C342.623 105.305 342.781 105.881 343.096 106.398C343.423 106.903 343.861 107.304 344.407 107.605C344.965 107.894 345.584 108.038 346.265 108.038ZM360.117 109.588C359.517 109.588 358.984 109.444 358.521 109.155C358.057 108.867 357.693 108.476 357.434 107.983C357.175 107.479 357.048 106.903 357.048 106.253V96.4135C357.048 96.1495 357.143 95.9334 357.334 95.7651C357.524 95.5967 357.772 95.5134 358.073 95.5134C358.371 95.5134 358.616 95.5967 358.807 95.7651C358.999 95.9334 359.093 96.1495 359.093 96.4135V106.253C359.093 106.697 359.191 107.065 359.381 107.354C359.571 107.641 359.818 107.786 360.117 107.786H360.626C360.9 107.786 361.117 107.869 361.282 108.038C361.458 108.206 361.55 108.422 361.55 108.686C361.55 108.95 361.418 109.168 361.159 109.336C360.9 109.503 360.567 109.588 360.158 109.588H360.117ZM209.764 131.394C208.891 131.394 208.059 131.273 207.268 131.032C206.476 130.793 205.79 130.457 205.199 130.024C204.617 129.59 204.185 129.093 203.911 128.528C203.775 128.275 203.775 128.042 203.911 127.826C204.062 127.608 204.307 127.471 204.649 127.41C204.894 127.363 205.135 127.398 205.366 127.518C205.612 127.627 205.794 127.795 205.917 128.023C206.08 128.324 206.349 128.601 206.717 128.852C207.099 129.104 207.554 129.309 208.085 129.465C208.618 129.621 209.177 129.7 209.764 129.7C210.419 129.7 211.019 129.609 211.565 129.428C212.124 129.249 212.575 128.99 212.916 128.655C213.256 128.306 213.429 127.88 213.429 127.375C213.429 126.737 213.143 126.168 212.57 125.663C212.011 125.158 211.083 124.846 209.787 124.726C208.096 124.58 206.763 124.142 205.794 123.41C204.826 122.677 204.344 121.771 204.344 120.688C204.344 119.896 204.594 119.223 205.099 118.67C205.604 118.118 206.285 117.698 207.145 117.409C208.017 117.12 208.988 116.977 210.05 116.977C211.292 116.977 212.311 117.199 213.102 117.644C213.893 118.087 214.548 118.677 215.066 119.408C215.258 119.674 215.331 119.926 215.289 120.166C215.262 120.395 215.135 120.574 214.903 120.707C214.644 120.85 214.36 120.881 214.062 120.796C213.761 120.713 213.538 120.557 213.388 120.329C213.048 119.811 212.601 119.408 212.056 119.121C211.524 118.832 210.837 118.683 209.992 118.67C208.982 118.658 208.136 118.826 207.454 119.175C206.772 119.512 206.431 120.034 206.431 120.742C206.431 121.104 206.531 121.451 206.735 121.788C206.954 122.112 207.345 122.394 207.9 122.635C208.477 122.874 209.294 123.043 210.359 123.14C211.984 123.284 213.243 123.722 214.143 124.455C215.057 125.176 215.517 126.131 215.517 127.321C215.517 128.005 215.352 128.601 215.026 129.104C214.712 129.609 214.281 130.035 213.734 130.384C213.202 130.72 212.588 130.972 211.892 131.14C211.21 131.309 210.502 131.394 209.764 131.394ZM222.074 135.429C221.774 135.429 221.519 135.34 221.315 135.159C221.125 134.991 221.029 134.775 221.029 134.511V126.293C221.041 125.345 221.296 124.491 221.789 123.734C222.279 122.978 222.947 122.382 223.793 121.95C224.64 121.505 225.594 121.283 226.657 121.283C227.736 121.283 228.696 121.505 229.54 121.95C230.387 122.382 231.056 122.978 231.546 123.734C232.051 124.491 232.306 125.345 232.306 126.293C232.306 127.242 232.075 128.096 231.61 128.852C231.16 129.597 230.537 130.193 229.746 130.637C228.954 131.069 228.063 131.286 227.067 131.286C226.261 131.286 225.517 131.14 224.835 130.853C224.165 130.552 223.594 130.149 223.116 129.646V134.511C223.116 134.775 223.02 134.991 222.828 135.159C222.638 135.34 222.388 135.429 222.074 135.429ZM226.657 129.663C227.353 129.663 227.973 129.519 228.519 129.231C229.065 128.931 229.495 128.528 229.808 128.023C230.135 127.506 230.3 126.93 230.3 126.293C230.3 125.644 230.135 125.068 229.808 124.563C229.495 124.046 229.065 123.643 228.519 123.356C227.973 123.055 227.353 122.905 226.657 122.905C225.976 122.905 225.352 123.055 224.794 123.356C224.248 123.643 223.82 124.046 223.507 124.563C223.193 125.068 223.033 125.644 223.033 126.293C223.033 126.93 223.193 127.506 223.507 128.023C223.82 128.528 224.248 128.931 224.794 129.231C225.352 129.519 225.976 129.663 226.657 129.663ZM242.538 131.286C241.541 131.286 240.652 131.069 239.859 130.637C239.067 130.193 238.442 129.597 237.977 128.852C237.526 128.096 237.299 127.242 237.299 126.293C237.299 125.345 237.545 124.491 238.036 123.734C238.542 122.978 239.217 122.382 240.064 121.95C240.923 121.505 241.883 121.283 242.947 121.283C244.01 121.283 244.967 121.505 245.811 121.95C246.659 122.382 247.326 122.978 247.817 123.734C248.322 124.491 248.577 125.345 248.577 126.293V130.311C248.577 130.577 248.473 130.799 248.268 130.978C248.077 131.147 247.831 131.232 247.531 131.232C247.23 131.232 246.98 131.147 246.776 130.978C246.585 130.799 246.489 130.577 246.489 130.311V129.646C246.011 130.149 245.43 130.552 244.749 130.853C244.079 131.14 243.342 131.286 242.538 131.286ZM242.947 129.663C243.642 129.663 244.266 129.519 244.812 129.231C245.356 128.931 245.784 128.528 246.099 128.023C246.413 127.506 246.571 126.93 246.571 126.293C246.571 125.644 246.413 125.068 246.099 124.563C245.784 124.046 245.356 123.643 244.812 123.356C244.266 123.055 243.642 122.905 242.947 122.905C242.266 122.905 241.647 123.055 241.088 123.356C240.542 123.643 240.104 124.046 239.777 124.563C239.463 125.068 239.305 125.644 239.305 126.293C239.305 126.93 239.463 127.506 239.777 128.023C240.104 128.528 240.542 128.931 241.088 129.231C241.647 129.519 242.266 129.663 242.947 129.663ZM259.214 131.286C258.122 131.286 257.143 131.069 256.284 130.637C255.439 130.193 254.772 129.597 254.279 128.852C253.801 128.096 253.566 127.242 253.566 126.293C253.566 125.32 253.801 124.455 254.279 123.699C254.756 122.941 255.412 122.353 256.243 121.933C257.076 121.499 258.031 121.283 259.109 121.283C260.718 121.283 262.056 121.825 263.121 122.905C263.31 123.097 263.379 123.296 263.323 123.5C263.27 123.705 263.121 123.884 262.874 124.04C262.683 124.16 262.474 124.202 262.242 124.167C262.011 124.119 261.797 124.011 261.606 123.842C260.937 123.217 260.105 122.905 259.109 122.905C258.057 122.905 257.208 123.217 256.552 123.842C255.898 124.455 255.571 125.272 255.571 126.293C255.571 126.943 255.721 127.518 256.019 128.023C256.336 128.528 256.763 128.931 257.307 129.231C257.853 129.519 258.491 129.663 259.214 129.663C260.14 129.663 260.892 129.453 261.463 129.033C261.683 128.876 261.904 128.792 262.139 128.78C262.369 128.757 262.574 128.811 262.751 128.942C262.983 129.11 263.115 129.303 263.142 129.519C263.171 129.723 263.088 129.91 262.895 130.078C261.914 130.883 260.686 131.286 259.214 131.286ZM274.143 131.286C273.011 131.286 272 131.076 271.112 130.654C270.241 130.222 269.55 129.634 269.044 128.888C268.554 128.131 268.308 127.267 268.308 126.293C268.308 125.308 268.54 124.443 269.005 123.699C269.481 122.941 270.136 122.353 270.968 121.933C271.801 121.499 272.755 121.283 273.834 121.283C274.897 121.283 275.812 121.494 276.576 121.914C277.339 122.323 277.922 122.893 278.318 123.626C278.727 124.347 278.931 125.183 278.931 126.131C278.931 126.359 278.84 126.552 278.665 126.708C278.485 126.851 278.264 126.924 277.99 126.924H270.213C270.364 127.753 270.791 128.432 271.501 128.96C272.223 129.478 273.106 129.736 274.143 129.736C274.565 129.736 274.993 129.669 275.43 129.538C275.881 129.393 276.244 129.231 276.517 129.05C276.721 128.919 276.94 128.852 277.172 128.852C277.416 128.84 277.625 128.9 277.805 129.033C278.037 129.212 278.158 129.411 278.171 129.627C278.187 129.844 278.076 130.03 277.844 130.186C277.381 130.511 276.803 130.775 276.108 130.978C275.425 131.184 274.77 131.286 274.143 131.286ZM273.834 122.833C272.824 122.833 272.015 123.08 271.401 123.572C270.786 124.065 270.395 124.701 270.232 125.482H277.047C276.926 124.713 276.589 124.083 276.043 123.591C275.498 123.086 274.762 122.833 273.834 122.833Z" fill="white"/>
<path id="Vector 25" d="M334.618 71.7538C338.868 71.7538 342.313 69.2007 342.313 66.0517C342.313 62.9024 338.868 60.3493 334.618 60.3493C330.369 60.3493 326.924 62.9024 326.924 66.0517C326.924 69.2007 330.369 71.7538 334.618 71.7538Z" fill="#6BDA7E"/>
<path id="Vector 26" d="M357.221 71.7538C361.205 71.7538 364.435 69.2007 364.435 66.0517C364.435 62.9024 361.205 60.3493 357.221 60.3493C353.237 60.3493 350.008 62.9024 350.008 66.0517C350.008 69.2007 353.237 71.7538 357.221 71.7538Z" fill="#6BDA7E"/>
<path id="Vector 27" d="M379.824 71.7538C383.543 71.7538 386.557 69.2007 386.557 66.0517C386.557 62.9024 383.543 60.3493 379.824 60.3493C376.106 60.3493 373.092 62.9024 373.092 66.0517C373.092 69.2007 376.106 71.7538 379.824 71.7538Z" fill="#6BDA7E"/>
<path id="Vector 28" d="M123.496 203.857C143.415 203.857 159.565 187.262 159.565 166.792C159.565 146.322 143.415 129.727 123.496 129.727C103.576 129.727 87.4275 146.322 87.4275 166.792C87.4275 187.262 103.576 203.857 123.496 203.857Z" fill="#6BDA7E"/>
<path id="Vector 29" d="M106.217 270.075C104.515 270.075 102.96 269.749 101.553 269.095C100.164 268.443 99.0607 267.551 98.2444 266.428C97.4454 265.302 97.0458 264.065 97.0458 262.716C97.0458 261.364 97.4454 260.127 98.2444 259.004C99.0607 257.878 100.172 256.988 101.579 256.334C102.986 255.68 104.549 255.354 106.269 255.354C107.989 255.354 109.543 255.674 110.933 256.311C112.34 256.952 113.443 257.835 114.242 258.962C115.041 260.074 115.44 261.311 115.44 262.674C115.44 264.036 115.032 265.286 114.216 266.428C113.399 267.551 112.288 268.443 110.881 269.095C109.474 269.749 107.919 270.075 106.217 270.075ZM106.217 269.139C107.711 269.139 109.066 268.853 110.281 268.285C111.497 267.714 112.453 266.934 113.147 265.947C113.86 264.96 114.216 263.869 114.216 262.674C114.216 261.479 113.868 260.394 113.173 259.422C112.496 258.447 111.549 257.682 110.334 257.125C109.135 256.569 107.78 256.291 106.269 256.291C104.775 256.291 103.412 256.577 102.179 257.149C100.963 257.718 100.007 258.495 99.3125 259.483C98.6178 260.457 98.2705 261.535 98.2705 262.716C98.2705 263.897 98.6178 264.982 99.3125 265.968C100.007 266.943 100.963 267.714 102.179 268.285C103.394 268.853 104.741 269.139 106.217 269.139ZM106.504 267.012C105.444 267.012 104.497 266.829 103.664 266.467C102.83 266.107 102.179 265.601 101.709 264.947C101.241 264.292 101.006 263.549 101.006 262.716C101.006 261.88 101.241 261.136 101.709 260.483C102.179 259.831 102.83 259.322 103.664 258.962C104.497 258.6 105.444 258.418 106.504 258.418C107.407 258.418 108.232 258.571 108.979 258.877C109.726 259.183 110.308 259.595 110.724 260.108L109.239 260.963C108.614 260.213 107.693 259.837 106.478 259.837C105.47 259.837 104.636 260.102 103.976 260.63C103.316 261.157 102.986 261.853 102.986 262.716C102.986 263.577 103.316 264.272 103.976 264.799C104.636 265.328 105.47 265.592 106.478 265.592C107.693 265.592 108.614 265.217 109.239 264.468L110.724 265.302C110.308 265.829 109.726 266.246 108.979 266.552C108.232 266.859 107.407 267.012 106.504 267.012ZM143.327 270.014L143.301 259.378L136.709 268.241H135.51L128.918 259.441V270.014H126.417V255.416H128.554L136.161 265.676L143.666 255.416H145.802L145.828 270.014H143.327ZM163.416 264.549C163.416 264.702 163.399 264.904 163.364 265.155H152.161C152.317 266.129 152.847 266.914 153.75 267.512C154.671 268.096 155.808 268.388 157.163 268.388C158.813 268.388 160.142 267.942 161.149 267.053L162.53 268.346C161.905 268.93 161.123 269.374 160.186 269.68C159.265 269.986 158.232 270.14 157.085 270.14C155.626 270.14 154.332 269.902 153.203 269.43C152.074 268.942 151.197 268.268 150.572 267.408C149.964 266.545 149.66 265.572 149.66 264.488C149.66 263.416 149.955 262.449 150.546 261.59C151.153 260.728 151.979 260.059 153.021 259.587C154.08 259.099 155.27 258.857 156.59 258.857C157.91 258.857 159.083 259.099 160.107 259.587C161.149 260.059 161.957 260.728 162.53 261.59C163.121 262.449 163.416 263.438 163.416 264.549ZM156.59 260.547C155.392 260.547 154.384 260.837 153.568 261.422C152.769 262.006 152.3 262.772 152.161 263.716H161.019C160.88 262.784 160.403 262.026 159.586 261.442C158.787 260.845 157.788 260.547 156.59 260.547ZM169.287 260.817C169.722 260.177 170.364 259.692 171.216 259.356C172.067 259.024 173.1 258.857 174.316 258.857V260.796C174.177 260.781 173.986 260.776 173.742 260.776C172.388 260.776 171.319 261.102 170.537 261.756C169.774 262.395 169.391 263.312 169.391 264.507V270.014H166.89V258.962H169.287V260.817ZM183.185 270.14C181.812 270.14 180.579 269.897 179.484 269.409C178.39 268.922 177.531 268.256 176.906 267.408C176.297 266.545 175.993 265.572 175.993 264.488C175.993 263.404 176.297 262.437 176.906 261.59C177.531 260.728 178.39 260.059 179.484 259.587C180.579 259.099 181.812 258.857 183.185 258.857C184.557 258.857 185.782 259.099 186.858 259.587C187.952 260.059 188.804 260.728 189.412 261.59C190.037 262.437 190.35 263.404 190.35 264.488C190.35 265.572 190.037 266.545 189.412 267.408C188.804 268.256 187.952 268.922 186.858 269.409C185.782 269.897 184.557 270.14 183.185 270.14ZM183.185 268.388C184.069 268.388 184.861 268.227 185.556 267.907C186.267 267.575 186.824 267.116 187.222 266.533C187.622 265.934 187.823 265.253 187.823 264.488C187.823 263.722 187.622 263.049 187.222 262.465C186.824 261.867 186.267 261.408 185.556 261.088C184.861 260.769 184.069 260.608 183.185 260.608C182.299 260.608 181.499 260.769 180.787 261.088C180.092 261.408 179.537 261.867 179.12 262.465C178.72 263.049 178.52 263.722 178.52 264.488C178.52 265.253 178.72 265.934 179.12 266.533C179.537 267.116 180.092 267.575 180.787 267.907C181.499 268.227 182.299 268.388 183.185 268.388ZM201.17 255.416H208.857C210.784 255.416 212.496 255.722 213.989 256.334C215.482 256.947 216.637 257.806 217.455 258.919C218.288 260.018 218.704 261.284 218.704 262.716C218.704 264.146 218.288 265.419 217.455 266.533C216.637 267.629 215.482 268.483 213.989 269.095C212.496 269.708 210.784 270.014 208.857 270.014H201.17V255.416ZM208.7 268.2C210.177 268.2 211.471 267.97 212.583 267.512C213.711 267.053 214.58 266.412 215.188 265.592C215.796 264.758 216.099 263.8 216.099 262.716C216.099 261.632 215.796 260.678 215.188 259.857C214.58 259.024 213.711 258.376 212.583 257.919C211.471 257.46 210.177 257.229 208.7 257.229H203.776V268.2H208.7ZM222.331 258.962H224.832V270.014H222.331V258.962ZM223.583 256.835C223.095 256.835 222.687 256.709 222.357 256.459C222.044 256.209 221.887 255.902 221.887 255.541C221.887 255.178 222.044 254.875 222.357 254.623C222.687 254.36 223.095 254.227 223.583 254.227C224.067 254.227 224.467 254.352 224.781 254.602C225.109 254.839 225.275 255.139 225.275 255.501C225.275 255.875 225.109 256.193 224.781 256.459C224.467 256.709 224.067 256.835 223.583 256.835ZM242.819 258.962V268.511C242.819 270.444 242.219 271.869 241.022 272.787C239.822 273.718 238.034 274.185 235.652 274.185C234.351 274.185 233.108 274.04 231.927 273.747C230.746 273.469 229.791 273.065 229.062 272.537L230.261 270.994C230.903 271.44 231.692 271.786 232.631 272.036C233.587 272.3 234.567 272.433 235.575 272.433C237.189 272.433 238.379 272.127 239.144 271.515C239.926 270.903 240.316 269.972 240.316 268.72V267.845C239.728 268.414 238.997 268.845 238.128 269.139C237.277 269.418 236.349 269.555 235.341 269.555C234.021 269.555 232.821 269.332 231.745 268.887C230.686 268.429 229.853 267.797 229.243 266.99C228.636 266.171 228.332 265.239 228.332 264.195C228.332 263.153 228.636 262.227 229.243 261.422C229.853 260.603 230.686 259.969 231.745 259.525C232.821 259.079 234.021 258.857 235.341 258.857C236.383 258.857 237.345 259.01 238.232 259.317C239.136 259.623 239.875 260.074 240.448 260.672V258.962H242.819ZM235.628 267.802C236.53 267.802 237.34 267.649 238.051 267.344C238.779 267.038 239.344 266.615 239.742 266.073C240.162 265.517 240.369 264.891 240.369 264.195C240.369 263.126 239.926 262.264 239.042 261.61C238.155 260.942 237.016 260.608 235.628 260.608C234.221 260.608 233.075 260.942 232.188 261.61C231.301 262.264 230.859 263.126 230.859 264.195C230.859 264.891 231.059 265.517 231.458 266.073C231.874 266.615 232.439 267.038 233.153 267.344C233.881 267.649 234.706 267.802 235.628 267.802ZM247.596 258.962H250.096V270.014H247.596V258.962ZM248.847 256.835C248.361 256.835 247.953 256.709 247.622 256.459C247.31 256.209 247.153 255.902 247.153 255.541C247.153 255.178 247.31 254.875 247.622 254.623C247.953 254.36 248.361 254.227 248.847 254.227C249.334 254.227 249.732 254.352 250.045 254.602C250.373 254.839 250.54 255.139 250.54 255.501C250.54 255.875 250.373 256.193 250.045 256.459C249.732 256.709 249.334 256.835 248.847 256.835ZM262.64 269.369C262.273 269.618 261.82 269.812 261.282 269.951C260.745 270.075 260.19 270.14 259.616 270.14C258.227 270.14 257.15 269.841 256.386 269.241C255.619 268.645 255.238 267.789 255.238 266.676V260.608H252.893V258.962H255.238V256.541H257.739V258.962H261.7V260.608H257.739V266.593C257.739 267.191 257.923 267.649 258.288 267.97C258.67 268.29 259.208 268.451 259.902 268.451C260.667 268.451 261.318 268.276 261.857 267.93L262.64 269.369ZM270.691 258.857C272.601 258.857 274.06 259.233 275.068 259.984C276.093 260.732 276.604 261.853 276.604 263.34V270.014H274.234V268.555C273.817 269.068 273.218 269.465 272.435 269.744C271.672 270.006 270.758 270.14 269.701 270.14C268.156 270.14 266.913 269.841 265.973 269.241C265.054 268.645 264.593 267.857 264.593 266.885C264.593 265.913 265.037 265.133 265.92 264.549C266.808 263.953 268.214 263.654 270.143 263.654H274.104V263.256C274.104 262.395 273.79 261.736 273.165 261.277C272.541 260.817 271.619 260.587 270.404 260.587C269.588 260.587 268.788 260.698 268.007 260.922C267.225 261.131 266.564 261.414 266.026 261.776L264.985 260.275C265.696 259.816 266.548 259.47 267.538 259.233C268.527 258.982 269.579 258.857 270.691 258.857ZM270.117 268.596C271.072 268.596 271.897 268.429 272.592 268.096C273.286 267.748 273.79 267.262 274.104 266.636V265.093H270.247C268.129 265.093 267.07 265.662 267.07 266.803C267.07 267.359 267.336 267.797 267.876 268.115C268.416 268.438 269.162 268.596 270.117 268.596ZM281.234 254.541H283.736V270.014H281.234V254.541ZM301.186 270.179C299.813 270.179 298.486 270.014 297.201 269.68C295.932 269.332 294.934 268.886 294.205 268.346L295.168 266.718C295.862 267.221 296.75 267.629 297.825 267.95C298.921 268.256 300.042 268.409 301.186 268.409C302.698 268.409 303.826 268.207 304.573 267.802C305.32 267.386 305.695 266.839 305.695 266.155C305.695 265.657 305.486 265.253 305.069 264.947C304.671 264.627 304.165 264.384 303.559 264.218C302.967 264.048 302.126 263.863 301.031 263.654C299.659 263.39 298.547 263.126 297.696 262.859C296.862 262.597 296.14 262.193 295.534 261.651C294.944 261.095 294.647 260.352 294.647 259.422C294.647 258.642 294.899 257.939 295.403 257.314C295.925 256.69 296.705 256.187 297.748 255.812C298.788 255.436 300.084 255.25 301.629 255.25C302.708 255.25 303.767 255.36 304.808 255.581C305.852 255.807 306.745 256.125 307.493 256.541L306.632 258.209C305.867 257.822 305.052 257.529 304.183 257.334C303.314 257.125 302.462 257.02 301.629 257.02C300.153 257.02 299.043 257.237 298.296 257.669C297.566 258.1 297.201 258.656 297.201 259.336C297.201 259.837 297.409 260.248 297.825 260.567C298.243 260.873 298.756 261.116 299.362 261.296C299.99 261.462 300.831 261.644 301.892 261.841C303.263 262.103 304.367 262.368 305.199 262.631C306.034 262.896 306.745 263.299 307.336 263.839C307.944 264.384 308.25 265.113 308.25 266.032C308.25 266.795 307.987 267.497 307.466 268.137C306.945 268.764 306.154 269.264 305.095 269.639C304.034 270.002 302.734 270.179 301.186 270.179ZM319.011 258.857C320.348 258.857 321.548 259.092 322.607 259.567C323.666 260.04 324.491 260.698 325.082 261.547C325.692 262.395 325.994 263.375 325.994 264.488C325.994 265.601 325.692 266.588 325.082 267.447C324.491 268.298 323.666 268.958 322.607 269.43C321.548 269.902 320.348 270.14 319.011 270.14C318.022 270.14 317.108 269.986 316.276 269.68C315.459 269.374 314.764 268.93 314.192 268.346V274.061H311.691V258.962H314.088V260.713C314.643 260.102 315.347 259.643 316.198 259.336C317.05 259.016 317.986 258.857 319.011 258.857ZM318.802 268.388C319.689 268.388 320.477 268.227 321.172 267.907C321.886 267.575 322.441 267.116 322.841 266.533C323.258 265.934 323.466 265.253 323.466 264.488C323.466 263.722 323.258 263.049 322.841 262.465C322.441 261.867 321.886 261.408 321.172 261.088C320.477 260.769 319.689 260.608 318.802 260.608C317.933 260.608 317.144 260.776 316.432 261.107C315.738 261.43 315.181 261.88 314.764 262.465C314.365 263.049 314.165 263.722 314.165 264.488C314.165 265.253 314.365 265.934 314.764 266.533C315.164 267.116 315.719 267.575 316.432 267.907C317.144 268.227 317.933 268.388 318.802 268.388ZM334.35 258.857C336.26 258.857 337.717 259.233 338.725 259.984C339.751 260.732 340.266 261.853 340.266 263.34V270.014H337.893V268.555C337.476 269.068 336.876 269.465 336.097 269.744C335.33 270.006 334.42 270.14 333.359 270.14C331.813 270.14 330.571 269.841 329.635 269.241C328.714 268.645 328.255 267.857 328.255 266.885C328.255 265.913 328.694 265.133 329.582 264.549C330.467 263.953 331.875 263.654 333.803 263.654H337.763V263.256C337.763 262.395 337.45 261.736 336.825 261.277C336.2 260.817 335.279 260.587 334.063 260.587C333.246 260.587 332.447 260.698 331.666 260.922C330.884 261.131 330.226 261.414 329.686 261.776L328.643 260.275C329.357 259.816 330.208 259.47 331.198 259.233C332.189 258.982 333.238 258.857 334.35 258.857ZM333.777 268.596C334.734 268.596 335.558 268.429 336.252 268.096C336.948 267.748 337.45 267.262 337.763 266.636V265.093H333.908C331.787 265.093 330.728 265.662 330.728 266.803C330.728 267.359 330.998 267.797 331.536 268.115C332.073 268.438 332.821 268.596 333.777 268.596ZM350.988 270.14C349.583 270.14 348.321 269.897 347.211 269.409C346.116 268.922 345.257 268.256 344.63 267.408C344.006 266.545 343.694 265.572 343.694 264.488C343.694 263.404 344.006 262.437 344.63 261.59C345.257 260.728 346.116 260.059 347.211 259.587C348.321 259.099 349.583 258.857 350.988 258.857C352.239 258.857 353.351 259.06 354.323 259.463C355.314 259.865 356.077 260.45 356.617 261.211L354.714 262.193C354.28 261.666 353.742 261.269 353.1 261.004C352.456 260.74 351.743 260.608 350.964 260.608C350.06 260.608 349.244 260.769 348.513 261.088C347.801 261.408 347.238 261.867 346.82 262.465C346.42 263.049 346.22 263.722 346.22 264.488C346.22 265.266 346.42 265.954 346.82 266.552C347.238 267.135 347.801 267.588 348.513 267.907C349.244 268.227 350.06 268.388 350.964 268.388C351.743 268.388 352.456 268.256 353.1 267.991C353.742 267.728 354.28 267.33 354.714 266.803L356.617 267.761C356.077 268.526 355.314 269.119 354.323 269.535C353.351 269.938 352.239 270.14 350.988 270.14ZM372.13 264.549C372.13 264.702 372.112 264.904 372.079 265.155H360.875C361.032 266.129 361.561 266.914 362.465 267.512C363.384 268.096 364.523 268.388 365.876 268.388C367.527 268.388 368.855 267.942 369.863 267.053L371.243 268.346C370.62 268.93 369.836 269.374 368.9 269.68C367.977 269.986 366.946 270.14 365.799 270.14C364.339 270.14 363.044 269.902 361.916 269.43C360.787 268.942 359.911 268.268 359.286 267.408C358.677 266.545 358.375 265.572 358.375 264.488C358.375 263.416 358.667 262.449 359.259 261.59C359.867 260.728 360.693 260.059 361.734 259.587C362.793 259.099 363.985 258.857 365.302 258.857C366.623 258.857 367.798 259.099 368.823 259.587C369.863 260.059 370.673 260.728 371.243 261.59C371.834 262.449 372.13 263.438 372.13 264.549ZM365.302 260.547C364.105 260.547 363.097 260.837 362.282 261.422C361.481 262.006 361.013 262.772 360.875 263.716H369.733C369.594 262.784 369.115 262.026 368.3 261.442C367.501 260.845 366.503 260.547 365.302 260.547Z" fill="white"/>
<path id="Vector 30" d="M102.952 162.34V171.544H100.9V162.34H96.202V171.544H94.1603V160.251H96.202V162.244C96.2158 161.97 96.2783 161.711 96.3895 161.471C96.5005 161.222 96.6464 161.011 96.8268 160.835C97.0145 160.65 97.2297 160.509 97.4727 160.41C97.7157 160.304 97.9762 160.251 98.2539 160.251H100.9C101.17 160.251 101.428 160.304 101.67 160.41C101.914 160.509 102.129 160.65 102.316 160.835C102.504 161.011 102.653 161.222 102.764 161.471C102.882 161.711 102.945 161.97 102.952 162.244C102.966 161.97 103.025 161.711 103.129 161.471C103.24 161.222 103.386 161.011 103.566 160.835C103.754 160.65 103.969 160.509 104.212 160.41C104.455 160.304 104.715 160.251 104.993 160.251H107.639C107.924 160.251 108.191 160.308 108.441 160.421C108.691 160.526 108.906 160.674 109.087 160.865C109.274 161.05 109.42 161.268 109.524 161.523C109.636 161.778 109.691 162.05 109.691 162.34V171.544H107.639V162.34H102.952ZM127.316 169.37C128.308 169.37 129.072 169.097 129.607 168.554C130.142 168.008 130.409 167.232 130.409 166.221V161.661C130.409 161.167 130.34 160.725 130.201 160.336C130.062 159.947 129.857 159.619 129.586 159.35C129.322 159.073 128.999 158.865 128.617 158.724C128.236 158.583 127.802 158.511 127.316 158.511H121.857V169.37H127.316ZM119.722 171.544V156.338H127.316C128.114 156.338 128.833 156.466 129.472 156.721C130.117 156.968 130.666 157.324 131.117 157.792C131.576 158.251 131.926 158.81 132.169 159.467C132.419 160.125 132.545 160.855 132.545 161.661V166.221C132.545 167.027 132.419 167.759 132.169 168.416C131.926 169.072 131.576 169.636 131.117 170.102C130.666 170.562 130.117 170.917 129.472 171.172C128.833 171.42 128.114 171.544 127.316 171.544H119.722ZM148.856 169.455V166.837H143.992C143.707 166.837 143.44 166.782 143.19 166.676C142.94 166.564 142.721 166.416 142.534 166.232C142.353 166.04 142.207 165.818 142.096 165.563C141.992 165.308 141.94 165.037 141.94 164.747V162.34C141.94 162.05 141.992 161.778 142.096 161.523C142.207 161.268 142.353 161.05 142.534 160.865C142.721 160.674 142.94 160.526 143.19 160.421C143.44 160.308 143.707 160.251 143.992 160.251H150.481V162.34H143.992V164.747H148.856C149.141 164.747 149.405 164.804 149.648 164.917C149.898 165.023 150.117 165.172 150.304 165.361C150.492 165.546 150.638 165.766 150.742 166.018C150.853 166.273 150.908 166.547 150.908 166.837V169.455C150.908 169.746 150.853 170.017 150.742 170.272C150.638 170.527 150.492 170.748 150.304 170.94C150.117 171.124 149.898 171.27 149.648 171.385C149.405 171.49 149.141 171.544 148.856 171.544H141.94V169.455H148.856Z" fill="white"/>
<g id="undraw dev productivity umsq (1) 1">
<path id="Vector" d="M551.462 640.11C551.462 640.11 546.781 641.459 539.17 643.371C522.343 647.619 491.204 654.663 464.817 656.069C442.097 657.295 422.9 654.348 419.389 641.873C417.884 636.509 420.018 632.096 424.671 628.469C438.558 617.634 474.828 613.752 503.596 612.418C511.72 612.046 519.234 611.873 525.488 611.806C536.111 611.69 543.073 611.873 543.073 611.873L543.242 612.418L551.462 640.11Z" fill="#A0616A"/>
<path id="Vector 2" d="M472.851 679.804C454.774 698.646 380.148 659.174 354.045 644.456C348.36 641.252 344.976 639.224 344.976 639.224L368.856 612.418L376.42 603.934C376.42 603.934 383.187 606.956 393.188 611.873C393.553 612.055 393.916 612.236 394.289 612.418C402.915 616.683 413.742 622.254 424.671 628.469C439.747 637.054 454.991 646.848 464.817 656.069C474.425 665.086 478.842 673.554 472.851 679.804Z" fill="#A0616A"/>
<g id="user">
<path id="Vector 3" d="M456.167 282.378C496.107 282.093 528.211 254.609 527.872 220.989C527.534 187.37 494.88 160.347 454.94 160.633C414.998 160.918 382.892 188.403 383.231 222.022C383.572 255.641 416.224 282.663 456.167 282.378Z" fill="#FED6DB"/>
<path id="Vector 4" d="M401.882 252.327C401.882 252.327 416.377 338.688 395.513 348.542C374.648 358.396 520.346 358.238 520.346 358.238C520.346 358.238 487.099 283.482 501.541 260.44L401.882 252.327Z" fill="#FED6DB"/>
<path id="Vector 5" d="M626.734 357.916L615.085 404.442L590.455 502.876L589.742 508.262L581.527 570.617L576.064 612.041L572.401 639.867C548.528 650.409 531.224 657.696 531.224 657.696C531.224 657.696 529.663 651.397 527.173 643.343C510.389 647.71 479.322 654.976 452.951 656.571C462.652 665.519 467.15 673.956 461.226 680.247C443.338 699.218 368.317 660.281 342.067 645.748C341.494 649.276 341.301 652.842 341.485 656.399L321.381 643.611L323.058 613.847L325.886 563.484L329.439 500.328C328.091 497.633 326.955 494.869 326.041 492.048C319.739 473.781 311.945 437.27 305.941 406.648C301.111 382.005 297.458 361.176 296.687 356.745C296.583 356.166 296.531 355.869 296.531 355.869L406.686 313.954C414.698 329.238 451.439 333.587 451.439 333.587C481.82 331.605 505.512 317.944 505.512 317.944L626.734 357.916Z" fill="#3B6978"/>
<path id="Vector 6" d="M394.808 164.355L381.241 159.895C381.241 159.895 409.25 133.493 448.612 135.491L437.443 125.317C437.443 125.317 464.396 116.011 489.223 139.758C502.273 152.241 517.375 166.916 526.865 183.501L541.346 183.396L535.415 194.642L556.682 205.692L534.95 203.835C536.305 209.96 536.566 216.22 535.725 222.41C534.856 228.604 531.164 234.269 525.426 238.212C525.426 238.212 508.362 209.114 508.315 204.557L508.43 215.949C508.43 215.949 494.806 205.793 494.735 198.958L487.441 206.985L483.627 194.48L438.269 207.336L445.543 197.031L417.302 200.65L428.241 188.04C428.241 188.04 396.427 203.078 395.326 215.617C394.222 228.157 384.986 240.097 384.986 240.097C384.986 240.097 359.333 181.697 394.808 164.355Z" fill="#3B6978"/>
<path id="Vector 7" d="M707.493 570.853C700.194 577.627 682.043 587.88 660.025 598.998C651.835 603.13 643.115 607.389 634.217 611.626C612.985 621.736 590.749 631.762 572.401 639.867C548.528 650.409 531.224 657.696 531.224 657.696C531.224 657.696 529.663 651.397 527.173 643.343C523.838 632.563 518.838 618.633 513.713 612.486C513.534 612.272 513.356 612.074 513.175 611.878C511.683 610.257 510.189 609.314 508.724 609.325L581.527 570.617L612.991 553.885L589.742 508.262L560.584 451.033L577.367 404.711L594.239 358.148L626.734 357.916C626.734 357.916 637.692 377.606 651.727 405.075C653.825 409.182 655.992 413.464 658.201 417.884C687.088 475.63 723.191 556.295 707.493 570.853Z" fill="#3B6978"/>
<path id="Vector 8" d="M380.88 612.888C378.211 612.896 375.548 613.099 372.919 613.49C350.343 616.921 343.848 634.195 342.067 645.748C341.494 649.277 341.301 652.842 341.487 656.398L321.381 643.611L314.056 638.953C296.489 633.938 280.788 624.918 267.149 614.245C255.312 604.821 244.675 594.385 235.411 583.106C226.182 571.986 217.938 560.314 210.746 548.179C208.739 544.793 207.64 541.076 207.529 537.294C207.417 533.51 208.296 529.754 210.102 526.286L234.369 479.713L269.838 411.641C270.087 410.025 270.363 408.445 270.665 406.9C277.486 372.247 296.538 356.746 296.538 356.746L311.211 356.641L321.531 406.537L334.351 468.528L326.041 492.047L306.839 546.367L325.884 563.484L380.88 612.888Z" fill="#3B6978"/>
<path id="Vector 9" d="M395.391 467.691L407.934 480.008C412.594 479.262 417.463 478.383 422.474 477.396L418.872 467.691L427.681 476.342C480.787 465.348 546.615 443.973 546.615 443.973C546.615 443.973 475.547 448.359 422.487 438.601C399.01 434.284 374.856 444.079 365.222 462.61C359.622 473.38 360.502 482.712 380.362 482.712C387.072 482.616 393.764 482.088 400.38 481.128L395.391 467.691Z" fill="#FF8108"/>
</g>
<path id="Vector 10" d="M695.773 669.704V674.73C695.778 676.108 695.473 677.477 694.877 678.762C694.614 679.334 694.294 679.889 693.923 680.417C692.751 682.073 691.087 683.443 689.096 684.396C687.107 685.349 684.854 685.848 682.564 685.847H243.381C241.092 685.848 238.841 685.349 236.849 684.396C234.857 683.443 233.194 682.073 232.022 680.417C231.652 679.889 231.333 679.334 231.068 678.762C230.475 677.477 230.17 676.108 230.173 674.73V669.704C230.173 668.245 230.514 666.8 231.179 665.449C231.841 664.1 232.815 662.876 234.042 661.843C235.267 660.811 236.725 659.991 238.325 659.432C239.93 658.873 241.647 658.585 243.381 658.587H268.696V656.245C268.696 656.182 268.712 656.123 268.739 656.066C268.767 656.009 268.806 655.959 268.859 655.915C268.91 655.874 268.969 655.838 269.037 655.816C269.103 655.793 269.175 655.781 269.246 655.781H282.455C282.528 655.781 282.601 655.793 282.669 655.816C282.734 655.838 282.795 655.874 282.847 655.915C282.897 655.959 282.938 656.009 282.965 656.066C282.994 656.123 283.005 656.182 283.005 656.245V658.587H291.259V656.245C291.259 656.182 291.272 656.123 291.301 656.066C291.327 656.009 291.369 655.959 291.419 655.915C291.472 655.874 291.532 655.838 291.598 655.816C291.666 655.793 291.737 655.781 291.809 655.781H305.018C305.091 655.781 305.162 655.793 305.229 655.816C305.296 655.838 305.356 655.874 305.408 655.915C305.459 655.959 305.499 656.009 305.527 656.066C305.554 656.123 305.568 656.182 305.568 656.245V658.587H313.828V656.245C313.828 656.182 313.845 656.123 313.873 656.066C313.9 656.009 313.94 655.959 313.991 655.915C314.042 655.874 314.103 655.838 314.17 655.816C314.237 655.793 314.309 655.781 314.381 655.781H327.589C327.66 655.781 327.733 655.793 327.801 655.816C327.867 655.838 327.928 655.874 327.978 655.915C328.03 655.959 328.071 656.009 328.099 656.066C328.126 656.123 328.139 656.182 328.139 656.245V658.587H336.391V656.245C336.391 656.182 336.406 656.123 336.433 656.066C336.461 656.009 336.501 655.959 336.553 655.915C336.604 655.874 336.664 655.838 336.731 655.816C336.798 655.793 336.87 655.781 336.941 655.781H350.15C350.223 655.781 350.294 655.793 350.362 655.816C350.428 655.838 350.489 655.874 350.541 655.915C350.591 655.959 350.633 656.009 350.659 656.066C350.688 656.123 350.701 656.182 350.701 656.245V658.587H358.954V656.245C358.954 656.182 358.967 656.123 358.995 656.066C359.022 656.009 359.063 655.959 359.113 655.915C359.165 655.874 359.226 655.838 359.292 655.816C359.361 655.793 359.432 655.781 359.504 655.781H372.711C372.785 655.781 372.857 655.793 372.923 655.816C372.991 655.838 373.049 655.874 373.101 655.915C373.153 655.959 373.194 656.009 373.221 656.066C373.248 656.123 373.263 656.182 373.263 656.245V658.587H381.524V656.245C381.524 656.182 381.539 656.123 381.567 656.066C381.594 656.009 381.635 655.959 381.685 655.915C381.737 655.874 381.798 655.838 381.865 655.816C381.932 655.793 382.003 655.781 382.075 655.781H395.284C395.355 655.781 395.427 655.793 395.495 655.816C395.56 655.838 395.621 655.874 395.673 655.915C395.724 655.959 395.766 656.009 395.794 656.066C395.821 656.123 395.834 656.182 395.834 656.245V658.587H404.086V656.245C404.086 656.182 404.1 656.123 404.127 656.066C404.155 656.009 404.195 655.959 404.247 655.915C404.297 655.874 404.358 655.838 404.426 655.816C404.493 655.793 404.565 655.781 404.636 655.781H508.1C508.173 655.781 508.245 655.793 508.311 655.816C508.379 655.838 508.438 655.874 508.491 655.915C508.542 655.959 508.582 656.009 508.611 656.066C508.637 656.123 508.65 656.182 508.65 656.245V658.587H516.913V656.245C516.913 656.182 516.926 656.123 516.955 656.066C516.982 656.009 517.023 655.959 517.074 655.915C517.124 655.874 517.186 655.838 517.252 655.816C517.32 655.793 517.392 655.781 517.464 655.781H530.671C530.818 655.781 530.956 655.831 531.061 655.918C531.163 656.004 531.221 656.121 531.224 656.245V658.587H539.473V656.245C539.473 656.182 539.49 656.123 539.516 656.066C539.544 656.009 539.584 655.959 539.636 655.915C539.687 655.874 539.747 655.838 539.815 655.816C539.881 655.793 539.952 655.781 540.024 655.781H553.232C553.305 655.781 553.377 655.793 553.446 655.816C553.512 655.838 553.573 655.874 553.624 655.915C553.675 655.959 553.716 656.009 553.743 656.066C553.771 656.123 553.784 656.182 553.784 656.245V658.587H562.036V656.245C562.036 656.182 562.049 656.123 562.078 656.066C562.106 656.009 562.145 655.959 562.196 655.915C562.248 655.874 562.309 655.838 562.376 655.816C562.443 655.793 562.515 655.781 562.586 655.781H575.795C575.868 655.781 575.939 655.793 576.006 655.816C576.073 655.838 576.133 655.874 576.185 655.915C576.236 655.959 576.276 656.009 576.304 656.066C576.331 656.123 576.345 656.182 576.345 656.245V658.587H584.607V656.245C584.607 656.182 584.622 656.123 584.649 656.066C584.676 656.009 584.717 655.959 584.769 655.915C584.819 655.874 584.88 655.838 584.947 655.816C585.014 655.793 585.087 655.781 585.158 655.781H598.366C598.509 655.782 598.65 655.832 598.751 655.918C598.853 656.004 598.909 656.123 598.908 656.245V658.587H607.168V656.245C607.168 656.182 607.184 656.123 607.211 656.066C607.239 656.009 607.279 655.959 607.33 655.915C607.381 655.874 607.442 655.838 607.509 655.816C607.575 655.793 607.647 655.781 607.719 655.781H620.929C621 655.781 621.072 655.793 621.139 655.816C621.205 655.838 621.265 655.874 621.318 655.915C621.369 655.959 621.411 656.009 621.437 656.066C621.466 656.123 621.479 656.182 621.479 656.245V658.587H629.731V656.245C629.731 656.182 629.744 656.123 629.772 656.066C629.8 656.009 629.84 655.959 629.891 655.915C629.942 655.874 630.003 655.838 630.071 655.816C630.137 655.793 630.21 655.781 630.281 655.781H643.489C643.563 655.781 643.634 655.793 643.7 655.816C643.768 655.838 643.828 655.874 643.878 655.915C643.931 655.959 643.97 656.009 643.998 656.066C644.025 656.123 644.04 656.182 644.04 656.245V658.587H682.564C684.298 658.585 686.018 658.873 687.618 659.432C689.223 659.991 690.679 660.811 691.905 661.843C693.132 662.876 694.103 664.1 694.769 665.449C695.432 666.8 695.773 668.245 695.773 669.704Z" fill="#E0DEDE"/>
<path id="Vector 11" d="M823.478 678.762H102.574V680.417H823.478V678.762Z" fill="white"/>
<path id="Vector 12" d="M660.41 458.087H496.713V455.247H422.486V458.087H258.115C255.179 458.087 252.362 459.069 250.286 460.816C248.209 462.566 247.041 464.936 247.041 467.408V656.079C247.041 658.551 248.209 660.922 250.286 662.67C252.362 664.417 255.179 665.398 258.115 665.398H660.41C663.346 665.398 666.162 664.417 668.238 662.67C670.316 660.922 671.483 658.551 671.483 656.079V467.408C671.483 466.185 671.197 464.971 670.639 463.841C670.083 462.71 669.268 461.683 668.238 460.816C667.211 459.952 665.99 459.266 664.647 458.798C663.303 458.329 661.863 458.087 660.41 458.087Z" fill="#E0DEDE"/>
<path id="Vector 14" d="M460.568 548.206C474.146 548.206 485.155 538.94 485.155 527.51C485.155 516.08 474.146 506.814 460.568 506.814C446.988 506.814 435.98 516.08 435.98 527.51C435.98 538.94 446.988 548.206 460.568 548.206Z" fill="#3B6978"/>
<path id="Vector 16" d="M133.013 652.186V680.332H166.452V652.186H133.013ZM164.997 679.107H134.459V653.41H164.997V679.107Z" fill="white"/>
<path id="Vector 15" d="M149.729 670.398H122.191V693.576H149.729V670.398Z" fill="white"/>
<path id="Vector 18" d="M770.322 652.186V680.332H803.761V652.186H770.322ZM802.304 679.107H771.767V653.41H802.304V679.107Z" fill="white"/>
<path id="Vector 17" d="M787.037 670.398H759.498V693.576H787.037V670.398Z" fill="white"/>
<g id="leaf-left">
<path id="Vector 33" d="M191.18 619.512C192.099 645.962 173.738 655.654 150.696 656.22C150.161 656.233 149.629 656.241 149.098 656.245C148.03 656.252 146.972 656.237 145.924 656.199C125.085 655.472 108.59 646.16 107.737 621.563C106.853 596.108 144.39 563.034 147.207 560.586L147.212 560.585C147.319 560.49 147.374 560.444 147.374 560.444C147.374 560.444 190.264 593.066 191.18 619.512Z" fill="#6BDA7E"/>
<path id="Vector 34" d="M149.038 652.211L163.675 633.89L149.068 654.183L149.098 656.245C148.03 656.252 146.972 656.237 145.923 656.199L146.649 629.7L146.63 629.495L146.656 629.456L146.726 626.952L130.697 607.362L146.707 625.077L146.764 625.606L147.312 605.584L133.468 585.275L147.351 602.067L147.207 560.586V560.448L147.212 560.585L148.13 593.277L160.749 579.997L148.172 596.093L148.447 614.001L160.058 596.522L148.49 616.635L148.644 626.593L165.53 602.245L148.695 630.068L149.038 652.211Z" fill="#3F3D56"/>
</g>
<g id="leaf-right">
<path id="Vector 35" d="M828.489 620.462C829.406 646.912 811.046 656.604 788.005 657.17C787.469 657.183 786.937 657.192 786.406 657.196C785.339 657.202 784.28 657.187 783.231 657.149C762.393 656.422 745.899 647.11 745.044 622.513C744.161 597.058 781.698 563.984 784.515 561.537L784.521 561.535C784.627 561.441 784.682 561.394 784.682 561.394C784.682 561.394 827.572 594.016 828.489 620.462Z" fill="#6BDA7E"/>
<path id="Vector 36" d="M786.347 653.161L800.984 634.841L786.377 655.133L786.406 657.196C785.339 657.202 784.28 657.187 783.231 657.149L783.956 630.65L783.938 630.445L783.966 630.406L784.034 627.902L768.006 608.313L784.016 626.028L784.072 626.556L784.62 606.535L770.776 586.226L784.66 603.017L784.515 561.537V561.398L784.521 561.535L785.439 594.227L798.057 580.947L785.481 597.043L785.756 614.951L797.367 597.473L785.799 617.586L785.953 627.544L802.837 603.196L786.004 631.018L786.347 653.161Z" fill="#3F3D56"/>
</g>
</g>
</g>
</g>
</g>
</g>
</svg>
