<svg width="400" height="400" viewBox="0 0 786 675" fill="none" xmlns="http://www.w3.org/2000/svg">
<g id="hero">
<g id="ill">
<path id="Vector 2 2" d="M665.5 209C627.668 209 597 179.898 597 144C597 108.102 627.668 79 665.5 79C703.332 79 734 108.102 734 144C734 179.898 703.332 209 665.5 209Z" fill="#FFECE1"/>
<path id="Vector 3 2" d="M655.485 75.5628C661.804 74.8124 668.196 74.8124 674.514 75.5628C688.589 77.2852 701.838 82.7378 712.688 91.2701C723.539 99.8038 731.538 111.06 735.733 123.704C737.641 129.466 738.724 135.439 738.946 141.468C738.979 142.306 739 143.152 739 144.001C738.979 162.295 731.177 179.836 717.304 192.77C703.43 205.706 684.621 212.982 665 213C663.425 213 661.849 212.952 660.294 212.865C656.648 212.65 653.022 212.181 649.448 211.462C632.388 208.041 617.172 199.108 606.487 186.243C595.805 173.374 590.34 157.4 591.064 141.141C591.786 124.883 598.647 109.385 610.433 97.3857C622.222 85.3855 638.178 77.657 655.485 75.5628ZM641.839 207.46H641.849C647.809 209.357 654.011 210.508 660.294 210.881C661.849 210.98 663.425 211.03 665 211.03C684.058 211.008 702.329 203.94 715.804 191.374C729.281 178.806 736.862 161.772 736.885 144.001C736.885 143.152 736.865 142.306 736.833 141.468C736.106 124.149 728.223 107.763 714.834 95.7427C701.445 83.722 683.587 76.994 665 76.9708C647.969 76.9721 631.492 82.6107 618.504 92.8831C605.516 103.154 596.86 117.392 594.08 133.06C591.299 148.726 594.572 164.804 603.319 178.429C612.066 192.056 625.717 202.345 641.839 207.46Z" fill="#7D5A5A"/>
<path id="Vector 4 2" d="M663 84H665V97H663V84Z" fill="#7D5A5A"/>
<path id="Vector 5 2" d="M713.625 102.645L714.63 104.318L704.378 113.356L703.37 111.681L713.625 102.645Z" fill="#7D5A5A"/>
<path id="Vector 6 2" d="M731 142V144H718V142H731Z" fill="#7D5A5A"/>
<path id="Vector 7 2" d="M711 184.749L709.75 186L701 177.251L702.251 176L711 184.749Z" fill="#7D5A5A"/>
<path id="Vector 8 2" d="M629 112.499L627.498 114L617 103.499L618.502 102L629 112.499Z" fill="#7D5A5A"/>
<path id="Vector 9 2" d="M614 142V144H600V142H614Z" fill="#7D5A5A"/>
<path id="Vector 10 2" d="M625.624 176L627 177.251L617.377 186L616 184.749L625.624 176Z" fill="#7D5A5A"/>
<path id="Vector 11 2" d="M664 191H666V204H664V191Z" fill="#7D5A5A"/>
<path id="Vector 12 2" d="M655 58H673V77H655V58Z" fill="#7D5A5A"/>
<path id="Vector 13" d="M664 62C651.296 62 641 58.1932 641 53.5C641 48.8054 651.296 45 664 45C676.702 45 687 48.8054 687 53.5C687 58.1932 676.702 62 664 62Z" fill="#7D5A5A"/>
<path id="clock-hand" d="M661 107H667V144H661V107Z" fill="#7D5A5A"/>
<path id="Vector 14 2" d="M664 154C659.03 154 655 149.523 655 144C655 138.477 659.03 134 664 134C668.97 134 673 138.477 673 144C673 149.523 668.97 154 664 154Z" fill="#7D5A5A"/>
<path id="Vector 15 2" d="M576 209H761V211H576V209Z" fill="#7D5A5A"/>
<path id="Vector 16 2" d="M333 235.507C333 239.093 329.822 242 325.905 242H7.09516C3.17674 242 0 239.093 0 235.507V6.49101C0 2.90611 3.17674 0 7.09516 0H325.905C329.822 0 333 2.90611 333 6.49101V235.507ZM0.790875 234.624C0.790875 238.21 3.96762 241.115 7.886 241.115H325.114C329.031 241.115 332.209 238.21 332.209 234.624V7.37421C332.209 3.78932 329.031 0.883202 325.114 0.883202H7.886C3.96762 0.883202 0.790875 3.78932 0.790875 7.37421V234.624Z" fill="white"/>
<path id="Vector 18 2" d="M201 111H144V119H201V111Z" fill="#F4EEEE"/>
<path id="Vector 19" d="M286 111H229V119H286V111Z" fill="#F4EEEE"/>
<path id="Vector 20" d="M201 155H144V163H201V155Z" fill="#F4EEEE"/>
<path id="Vector 21" d="M294 133H145V141H294V133Z" fill="#F4EEEE"/>
<path id="Vector 22" d="M315 209H21V235H315V209Z" fill="#6BDA7E"/>
<path id="Vector 23" d="M311 38H132V92H311V38Z" fill="#6BDA7E"/>
<path id="Vector 24" d="M138.021 59.809C137.708 59.809 137.45 59.7148 137.237 59.5247C137.024 59.3346 136.916 59.1007 136.916 58.8229V45.9861C136.916 45.6953 137.024 45.4614 137.237 45.2843C137.45 45.0942 137.708 45 138.021 45C138.448 45 138.773 45.1771 139.001 45.5296L145.321 56.8134L151.468 45.5296C151.694 45.1771 152.02 45 152.445 45C152.758 45 153.023 45.0942 153.235 45.2843C153.448 45.4614 153.552 45.6953 153.552 45.9861V58.8229C153.552 59.1007 153.439 59.3346 153.213 59.5247C153 59.7148 152.744 59.809 152.445 59.809C152.134 59.809 151.874 59.7148 151.661 59.5247C151.449 59.3346 151.34 59.1007 151.34 58.8229V49.3992L146.191 58.7466C145.95 59.0764 145.633 59.2404 145.236 59.2404C144.768 59.2404 144.427 59.0439 144.214 58.6524L139.128 49.5697V58.8229C139.128 59.1007 139.025 59.3346 138.811 59.5247C138.598 59.7148 138.333 59.809 138.021 59.809ZM165.622 59.8854C164.446 59.8854 163.396 59.6628 162.475 59.2209C161.568 58.7661 160.854 58.1471 160.327 57.3625C159.817 56.5665 159.561 55.6568 159.561 54.6317C159.561 53.5953 159.803 52.6855 160.286 51.9009C160.782 51.1049 161.462 50.486 162.327 50.0441C163.193 49.5876 164.185 49.3602 165.307 49.3602C166.412 49.3602 167.363 49.5811 168.157 50.0246C168.951 50.4535 169.552 51.0545 169.964 51.8262C170.389 52.5848 170.6 53.4621 170.6 54.4611C170.6 54.7016 170.511 54.9046 170.326 55.0687C170.142 55.2198 169.906 55.2961 169.621 55.2961H161.537C161.695 56.1685 162.143 56.8816 162.881 57.4389C163.632 57.9814 164.545 58.2544 165.622 58.2544C166.062 58.2544 166.512 58.1845 166.967 58.0448C167.435 57.8937 167.808 57.7231 168.091 57.5331C168.304 57.395 168.53 57.3251 168.771 57.3251C169.026 57.3121 169.248 57.3755 169.435 57.5136C169.676 57.7036 169.803 57.9132 169.816 58.1406C169.832 58.3681 169.717 58.563 169.476 58.7287C168.994 59.0699 168.389 59.3476 167.666 59.5621C166.956 59.7765 166.275 59.8854 165.622 59.8854ZM165.307 50.9912C164.257 50.9912 163.41 51.2511 162.773 51.7693C162.134 52.2875 161.731 52.9568 161.562 53.7788H168.645C168.516 52.9698 168.171 52.3054 167.603 51.7872C167.037 51.256 166.271 50.9912 165.307 50.9912ZM176.989 59.809C176.279 59.809 175.925 59.4922 175.925 58.8603V50.3852C175.925 49.7517 176.279 49.4365 176.989 49.4365C177.698 49.4365 178.054 49.7517 178.054 50.3852V50.7443C178.478 50.3024 178.994 49.9548 179.603 49.7013C180.226 49.4495 180.903 49.3228 181.628 49.3228C182.477 49.3228 183.107 49.4495 183.519 49.7013C183.944 49.9418 184.109 50.2325 184.011 50.5737C183.939 50.8401 183.796 51.0172 183.584 51.1049C183.371 51.1813 183.122 51.1943 182.837 51.1439C181.93 50.9782 181.116 50.9668 180.393 51.1049C179.669 51.2446 179.093 51.5029 178.668 51.883C178.256 52.2615 178.054 52.7424 178.054 53.324V58.8603C178.054 59.4922 177.698 59.809 176.989 59.809ZM193.249 59.8854C192.098 59.8854 191.088 59.6628 190.208 59.2209C189.328 58.7661 188.633 58.1471 188.123 57.3625C187.627 56.5665 187.376 55.6568 187.376 54.6317C187.376 53.5953 187.627 52.6855 188.123 51.9009C188.633 51.1049 189.328 50.486 190.208 50.0441C191.088 49.5876 192.098 49.3602 193.249 49.3602C194.382 49.3602 195.391 49.5876 196.27 50.0441C197.149 50.486 197.838 51.1049 198.336 51.9009C198.846 52.6855 199.102 53.5953 199.102 54.6317C199.102 55.6568 198.851 56.5665 198.353 57.3625C197.859 58.1471 197.172 58.7661 196.293 59.2209C195.413 59.6628 194.398 59.8854 193.249 59.8854ZM193.249 58.178C193.987 58.178 194.638 58.0269 195.206 57.7231C195.773 57.4194 196.214 57.0019 196.524 56.4723C196.851 55.9411 197.017 55.327 197.017 54.6317C197.017 53.9364 196.851 53.324 196.524 52.7928C196.214 52.2486 195.773 51.8262 195.206 51.5224C194.638 51.2186 193.987 51.0675 193.249 51.0675C192.511 51.0675 191.858 51.2186 191.292 51.5224C190.723 51.8262 190.279 52.2486 189.953 52.7928C189.627 53.324 189.462 53.9364 189.462 54.6317C189.462 55.327 189.627 55.9411 189.953 56.4723C190.279 57.0019 190.723 57.4194 191.292 57.7231C191.858 58.0269 192.511 58.178 193.249 58.178ZM214.988 59.809C214.675 59.809 214.414 59.7148 214.201 59.5247C213.991 59.3346 213.881 59.1007 213.881 58.8229V45.9861C213.881 45.6953 213.991 45.4614 214.201 45.2843C214.414 45.0942 214.675 45 214.988 45H218.841C220.061 45 221.167 45.182 222.16 45.5491C223.166 45.9032 224.036 46.415 224.774 47.0859C225.511 47.7422 226.079 48.5203 226.476 49.417C226.873 50.3154 227.072 51.308 227.072 52.3948C227.072 53.4816 226.873 54.4806 226.476 55.3904C226.079 56.2887 225.511 57.0717 224.774 57.7426C224.036 58.3989 223.166 58.9107 222.16 59.2778C221.167 59.6319 220.061 59.809 218.841 59.809H214.988ZM216.093 58.0643H218.841C220.032 58.0643 221.081 57.8239 221.99 57.343C222.912 56.8508 223.635 56.1815 224.159 55.3335C224.685 54.4741 224.943 53.4945 224.943 52.3948C224.943 51.282 224.685 50.3024 224.159 49.456C223.635 48.608 222.912 47.9452 221.99 47.4644C221.081 46.9835 220.032 46.7431 218.841 46.7431H216.093V58.0643ZM234.183 59.809C233.87 59.809 233.611 59.7197 233.398 59.5442C233.2 59.3541 233.1 59.1202 233.1 58.8424V50.4031C233.1 50.1123 233.2 49.8784 233.398 49.7013C233.611 49.5259 233.87 49.4365 234.183 49.4365C234.509 49.4365 234.774 49.5259 234.973 49.7013C235.172 49.8784 235.271 50.1123 235.271 50.4031V58.8424C235.271 59.1202 235.172 59.3541 234.973 59.5442C234.774 59.7197 234.509 59.809 234.183 59.809ZM234.183 47.7487C233.8 47.7487 233.469 47.6285 233.185 47.388C232.916 47.1362 232.779 46.8389 232.779 46.4978C232.779 46.1567 232.916 45.8659 233.185 45.6254C233.469 45.372 233.8 45.2453 234.183 45.2453C234.566 45.2453 234.893 45.372 235.162 45.6254C235.444 45.8659 235.587 46.1567 235.587 46.4978C235.587 46.8389 235.444 47.1362 235.162 47.388C234.893 47.6285 234.566 47.7487 234.183 47.7487ZM246.707 59.8854C245.643 59.8854 244.702 59.6628 243.879 59.2209C243.07 58.7661 242.434 58.1471 241.965 57.3625C241.496 56.5665 241.26 55.6568 241.26 54.6317C241.26 53.5953 241.51 52.6855 242.009 51.9009C242.519 51.1049 243.213 50.486 244.093 50.0441C244.971 49.5876 245.984 49.3602 247.132 49.3602C248.267 49.3602 249.274 49.5876 250.153 50.0441C251.034 50.486 251.722 51.1049 252.219 51.9009C252.729 52.6855 252.986 53.5953 252.986 54.6317V58.7287C252.986 59.7262 252.735 60.631 252.238 61.44C251.742 62.262 251.047 62.9118 250.153 63.3927C249.274 63.8735 248.253 64.1139 247.091 64.1139C246.084 64.1139 245.143 63.9369 244.263 63.5827C243.383 63.2286 242.636 62.7104 242.026 62.0281C241.842 61.812 241.77 61.5911 241.813 61.3637C241.871 61.1362 242.011 60.9527 242.239 60.8146C242.495 60.6619 242.76 60.6115 243.029 60.6619C243.311 60.7122 243.539 60.8389 243.71 61.042C244.093 61.4709 244.576 61.8055 245.156 62.046C245.739 62.2864 246.395 62.4066 247.132 62.4066C247.814 62.4066 248.437 62.262 249.005 61.9712C249.587 61.6804 250.049 61.2499 250.39 60.6814C250.73 60.1128 250.9 59.4175 250.9 58.5955V57.6663C250.461 58.3486 249.879 58.8928 249.155 59.2973C248.432 59.6888 247.614 59.8854 246.707 59.8854ZM247.132 58.178C247.87 58.178 248.523 58.0269 249.09 57.7231C249.658 57.4194 250.097 57.0019 250.409 56.4723C250.735 55.9411 250.9 55.327 250.9 54.6317C250.9 53.9364 250.735 53.324 250.409 52.7928C250.097 52.2486 249.658 51.8262 249.09 51.5224C248.523 51.2186 247.87 51.0675 247.132 51.0675C246.395 51.0675 245.744 51.2186 245.174 51.5224C244.609 51.8262 244.164 52.2486 243.838 52.7928C243.511 53.324 243.345 53.9364 243.345 54.6317C243.345 55.327 243.511 55.9411 243.838 56.4723C244.164 57.0019 244.609 57.4194 245.174 57.7231C245.744 58.0269 246.395 58.178 247.132 58.178ZM260.068 59.809C259.757 59.809 259.491 59.7197 259.278 59.5442C259.079 59.3541 258.981 59.1202 258.981 58.8424V50.4031C258.981 50.1123 259.079 49.8784 259.278 49.7013C259.491 49.5259 259.757 49.4365 260.068 49.4365C260.394 49.4365 260.654 49.5259 260.852 49.7013C261.052 49.8784 261.151 50.1123 261.151 50.4031V58.8424C261.151 59.1202 261.052 59.3541 260.852 59.5442C260.654 59.7197 260.394 59.809 260.068 59.809ZM260.068 47.7487C259.686 47.7487 259.349 47.6285 259.066 47.388C258.796 47.1362 258.664 46.8389 258.664 46.4978C258.664 46.1567 258.796 45.8659 259.066 45.6254C259.349 45.372 259.686 45.2453 260.068 45.2453C260.451 45.2453 260.778 45.372 261.047 45.6254C261.332 45.8659 261.472 46.1567 261.472 46.4978C261.472 46.8389 261.332 47.1362 261.047 47.388C260.778 47.6285 260.451 47.7487 260.068 47.7487ZM271.973 59.809C271.264 59.809 270.626 59.6514 270.059 59.3347C269.491 59.0065 269.046 58.563 268.72 58.0074C268.393 57.4518 268.23 56.8248 268.23 56.1295V51.446H267.249C266.953 51.446 266.71 51.3713 266.526 51.2186C266.342 51.0675 266.251 50.8775 266.251 50.65C266.251 50.3966 266.342 50.1952 266.526 50.0441C266.71 49.8914 266.953 49.815 267.249 49.815H268.23V47.0859C268.23 46.8065 268.328 46.579 268.525 46.4019C268.725 46.2249 268.981 46.1372 269.293 46.1372C269.606 46.1372 269.86 46.2249 270.059 46.4019C270.256 46.579 270.357 46.8065 270.357 47.0859V49.815H272.167C272.466 49.815 272.707 49.8914 272.891 50.0441C273.074 50.1952 273.165 50.3966 273.165 50.65C273.165 50.8775 273.074 51.0675 272.891 51.2186C272.707 51.3713 272.466 51.446 272.167 51.446H270.357V56.1295C270.357 56.6363 270.513 57.0587 270.823 57.4015C271.136 57.7426 271.52 57.9132 271.973 57.9132H272.696C272.95 57.9132 273.165 58.0009 273.334 58.178C273.519 58.3551 273.613 58.5825 273.613 58.8603C273.613 59.1381 273.491 59.3671 273.25 59.5442C273.022 59.7197 272.724 59.809 272.356 59.809H271.973ZM283.685 59.8854C282.648 59.8854 281.722 59.6579 280.899 59.2014C280.076 58.7336 279.426 58.1082 278.941 57.3251C278.473 56.5275 278.238 55.6308 278.238 54.6317C278.238 53.6326 278.493 52.7359 279.004 51.9399C279.528 51.1439 280.232 50.5168 281.112 50.062C282.006 49.5941 283.002 49.3602 284.109 49.3602C285.215 49.3602 286.207 49.5941 287.088 50.062C287.969 50.5168 288.663 51.1439 289.173 51.9399C289.699 52.7359 289.963 53.6326 289.963 54.6317V58.8603C289.963 59.1381 289.855 59.372 289.642 59.5621C289.443 59.7392 289.186 59.8285 288.876 59.8285C288.564 59.8285 288.303 59.7392 288.091 59.5621C287.891 59.372 287.793 59.1381 287.793 58.8603V58.1585C287.296 58.6897 286.691 59.1137 285.982 59.4289C285.287 59.7327 284.521 59.8854 283.685 59.8854ZM284.109 58.178C284.833 58.178 285.48 58.0269 286.049 57.7231C286.614 57.4064 287.06 56.984 287.386 56.4528C287.713 55.9086 287.878 55.3026 287.878 54.6317C287.878 53.9494 287.713 53.3435 287.386 52.8123C287.06 52.2681 286.614 51.844 286.049 51.5419C285.48 51.2251 284.833 51.0675 284.109 51.0675C283.401 51.0675 282.757 51.2251 282.177 51.5419C281.609 51.844 281.154 52.2681 280.814 52.8123C280.487 53.3435 280.322 53.9494 280.322 54.6317C280.322 55.3026 280.487 55.9086 280.814 56.4528C281.154 56.984 281.609 57.4064 282.177 57.7231C282.757 58.0269 283.401 58.178 284.109 58.178ZM298.511 59.809C297.887 59.809 297.333 59.6579 296.851 59.3541C296.369 59.0504 295.99 58.6394 295.721 58.1211C295.452 57.5899 295.32 56.984 295.32 56.3001V45.9471C295.32 45.6693 295.419 45.4419 295.617 45.2648C295.815 45.0877 296.072 45 296.385 45C296.695 45 296.95 45.0877 297.149 45.2648C297.348 45.4419 297.446 45.6693 297.446 45.9471V56.3001C297.446 56.7679 297.548 57.1546 297.745 57.4583C297.943 57.7605 298.2 57.9132 298.511 57.9132H299.04C299.325 57.9132 299.55 58.0009 299.722 58.178C299.905 58.3551 300 58.5825 300 58.8603C300 59.1381 299.863 59.3671 299.594 59.5442C299.325 59.7197 298.978 59.809 298.553 59.809H298.511ZM142.191 82.7535C141.284 82.7535 140.418 82.6268 139.596 82.3734C138.773 82.1216 138.059 81.7675 137.445 81.3126C136.84 80.8561 136.391 80.333 136.106 79.7385C135.965 79.472 135.965 79.2267 136.106 78.9993C136.263 78.7702 136.518 78.6257 136.873 78.5623C137.128 78.512 137.378 78.5493 137.619 78.676C137.874 78.7897 138.064 78.9668 138.191 79.2072C138.361 79.524 138.641 79.8148 139.023 80.0796C139.42 80.3444 139.893 80.5605 140.446 80.7245C141 80.8886 141.581 80.9715 142.191 80.9715C142.872 80.9715 143.496 80.8756 144.064 80.6855C144.645 80.4971 145.114 80.2242 145.468 79.8717C145.822 79.5045 146.002 79.0562 146.002 78.5249C146.002 77.854 145.704 77.2546 145.108 76.7234C144.527 76.1922 143.562 75.864 142.215 75.7373C140.457 75.5846 139.071 75.1232 138.064 74.3532C137.057 73.5816 136.556 72.628 136.556 71.4892C136.556 70.6558 136.816 69.9475 137.341 69.366C137.866 68.7844 138.574 68.3425 139.468 68.0388C140.375 67.735 141.384 67.5839 142.489 67.5839C143.78 67.5839 144.839 67.8178 145.662 68.2857C146.484 68.7519 147.165 69.3725 147.704 70.1425C147.903 70.4219 147.979 70.6867 147.935 70.9401C147.907 71.1806 147.775 71.369 147.534 71.5087C147.265 71.6598 146.97 71.6923 146.66 71.6029C146.347 71.5152 146.115 71.3511 145.959 71.1107C145.605 70.5665 145.141 70.1425 144.574 69.8403C144.021 69.5365 143.307 69.379 142.428 69.366C141.378 69.353 140.499 69.5301 139.789 69.8972C139.08 70.2513 138.726 70.8004 138.726 71.5461C138.726 71.9262 138.83 72.2917 139.042 72.6459C139.27 72.987 139.676 73.2843 140.253 73.5377C140.853 73.7895 141.703 73.9666 142.81 74.0689C144.499 74.22 145.808 74.6814 146.744 75.453C147.694 76.2116 148.172 77.2156 148.172 78.4681C148.172 79.1877 148.001 79.8148 147.662 80.3444C147.335 80.8756 146.887 81.324 146.319 81.6911C145.766 82.0452 145.127 82.31 144.404 82.4871C143.695 82.6642 142.958 82.7535 142.191 82.7535ZM154.99 87C154.678 87 154.413 86.9058 154.2 86.7157C154.003 86.5386 153.903 86.3112 153.903 86.0334V77.3862C153.916 76.3887 154.181 75.4904 154.693 74.6944C155.203 73.8983 155.897 73.2713 156.777 72.8164C157.657 72.3486 158.649 72.1146 159.755 72.1146C160.876 72.1146 161.874 72.3486 162.752 72.8164C163.632 73.2713 164.328 73.8983 164.838 74.6944C165.363 75.4904 165.628 76.3887 165.628 77.3862C165.628 78.3852 165.387 79.2836 164.904 80.0796C164.436 80.8626 163.788 81.4897 162.966 81.9575C162.143 82.4124 161.216 82.6398 160.181 82.6398C159.343 82.6398 158.569 82.4871 157.86 82.185C157.164 81.8682 156.57 81.4442 156.073 80.9146V86.0334C156.073 86.3112 155.973 86.5386 155.774 86.7157C155.576 86.9058 155.316 87 154.99 87ZM159.755 80.9325C160.478 80.9325 161.123 80.7814 161.69 80.4776C162.258 80.1625 162.705 79.7384 163.031 79.2072C163.371 78.663 163.542 78.0571 163.542 77.3862C163.542 76.7039 163.371 76.0979 163.031 75.5667C162.705 75.0225 162.258 74.5985 161.69 74.2964C161.123 73.9796 160.478 73.822 159.755 73.822C159.046 73.822 158.398 73.9796 157.818 74.2964C157.25 74.5985 156.805 75.0225 156.479 75.5667C156.153 76.0979 155.987 76.7039 155.987 77.3862C155.987 78.0571 156.153 78.663 156.479 79.2072C156.805 79.7384 157.25 80.1625 157.818 80.4776C158.398 80.7814 159.046 80.9325 159.755 80.9325ZM176.266 82.6398C175.229 82.6398 174.305 82.4124 173.48 81.9575C172.657 81.4897 172.007 80.8626 171.524 80.0796C171.055 79.2836 170.819 78.3852 170.819 77.3862C170.819 76.3887 171.075 75.4904 171.585 74.6944C172.111 73.8983 172.813 73.2713 173.694 72.8164C174.587 72.3486 175.585 72.1146 176.691 72.1146C177.796 72.1146 178.791 72.3486 179.669 72.8164C180.55 73.2713 181.244 73.8983 181.754 74.6944C182.279 75.4904 182.544 76.3887 182.544 77.3862V81.6148C182.544 81.8942 182.436 82.1281 182.223 82.3165C182.024 82.4936 181.769 82.583 181.457 82.583C181.144 82.583 180.884 82.4936 180.672 82.3165C180.473 82.1281 180.374 81.8942 180.374 81.6148V80.9146C179.877 81.4442 179.272 81.8682 178.564 82.185C177.868 82.4871 177.102 82.6398 176.266 82.6398ZM176.691 80.9325C177.414 80.9325 178.062 80.7814 178.63 80.4776C179.196 80.1625 179.641 79.7384 179.968 79.2072C180.294 78.663 180.459 78.0571 180.459 77.3862C180.459 76.7039 180.294 76.0979 179.968 75.5667C179.641 75.0225 179.196 74.5985 178.63 74.2964C178.062 73.9796 177.414 73.822 176.691 73.822C175.983 73.822 175.339 73.9796 174.758 74.2964C174.19 74.5985 173.735 75.0225 173.395 75.5667C173.069 76.0979 172.904 76.7039 172.904 77.3862C172.904 78.0571 173.069 78.663 173.395 79.2072C173.735 79.7384 174.19 80.1625 174.758 80.4776C175.339 80.7814 175.983 80.9325 176.691 80.9325ZM193.603 82.6398C192.468 82.6398 191.45 82.4124 190.557 81.9575C189.679 81.4897 188.985 80.8626 188.473 80.0796C187.976 79.2836 187.731 78.3852 187.731 77.3862C187.731 76.3627 187.976 75.453 188.473 74.657C188.969 73.8594 189.651 73.2404 190.515 72.7986C191.381 72.3421 192.374 72.1146 193.494 72.1146C195.167 72.1146 196.558 72.6848 197.665 73.822C197.862 74.0234 197.934 74.233 197.876 74.4474C197.82 74.6635 197.665 74.8519 197.409 75.016C197.21 75.1427 196.993 75.1866 196.752 75.1492C196.511 75.0989 196.289 74.9851 196.09 74.8081C195.395 74.1501 194.53 73.822 193.494 73.822C192.401 73.822 191.518 74.1501 190.836 74.8081C190.156 75.453 189.816 76.3124 189.816 77.3862C189.816 78.0701 189.972 78.676 190.282 79.2072C190.611 79.7384 191.055 80.1625 191.621 80.4776C192.188 80.7814 192.852 80.9325 193.603 80.9325C194.566 80.9325 195.348 80.7115 195.942 80.2697C196.17 80.104 196.4 80.0162 196.644 80.0033C196.884 79.9789 197.097 80.0357 197.281 80.1738C197.522 80.3509 197.659 80.554 197.687 80.7814C197.717 80.9958 197.631 81.1924 197.431 81.3695C196.411 82.2158 195.134 82.6398 193.603 82.6398ZM209.125 82.6398C207.948 82.6398 206.897 82.4189 205.974 81.9754C205.068 81.5205 204.35 80.9016 203.824 80.117C203.314 79.321 203.058 78.4112 203.058 77.3862C203.058 76.3497 203.299 75.44 203.783 74.657C204.278 73.8594 204.959 73.2404 205.824 72.7986C206.69 72.3421 207.682 72.1146 208.804 72.1146C209.909 72.1146 210.86 72.3372 211.654 72.7791C212.448 73.2096 213.054 73.809 213.466 74.5806C213.891 75.3393 214.103 76.2181 214.103 77.2156C214.103 77.456 214.008 77.6591 213.826 77.8232C213.639 77.9742 213.409 78.0506 213.124 78.0506H205.039C205.196 78.9229 205.64 79.6377 206.378 80.1933C207.129 80.7375 208.047 81.0088 209.125 81.0088C209.564 81.0088 210.009 80.939 210.463 80.8009C210.932 80.6482 211.309 80.4776 211.593 80.2875C211.805 80.1494 212.033 80.0796 212.274 80.0796C212.528 80.0666 212.745 80.13 212.932 80.2697C213.173 80.4581 213.299 80.6677 213.313 80.8951C213.329 81.1225 213.214 81.3191 212.973 81.4832C212.491 81.8243 211.89 82.1021 211.168 82.3165C210.458 82.5326 209.777 82.6398 209.125 82.6398ZM208.804 73.7456C207.754 73.7456 206.912 74.0056 206.274 74.5238C205.635 75.042 205.228 75.7113 205.059 76.5333H212.144C212.018 75.7243 211.668 75.0615 211.1 74.5433C210.534 74.0121 209.768 73.7456 208.804 73.7456Z" fill="white"/>
<path id="Vector 25" d="M272 20C276.418 20 280 17.3136 280 14.0001C280 10.6864 276.418 8 272 8C267.582 8 264 10.6864 264 14.0001C264 17.3136 267.582 20 272 20Z" fill="#6BDA7E"/>
<path id="Vector 26" d="M295.5 20C299.642 20 303 17.3136 303 14.0001C303 10.6864 299.642 8 295.5 8C291.358 8 288 10.6864 288 14.0001C288 17.3136 291.358 20 295.5 20Z" fill="#6BDA7E"/>
<path id="Vector 27" d="M319 20C322.866 20 326 17.3136 326 14.0001C326 10.6864 322.866 8 319 8C315.134 8 312 10.6864 312 14.0001C312 17.3136 315.134 20 319 20Z" fill="#6BDA7E"/>
<path id="Vector 28" d="M52.5 159C73.2088 159 90 141.539 90 120C90 98.4613 73.2088 81 52.5 81C31.7892 81 15 98.4613 15 120C15 141.539 31.7892 159 52.5 159Z" fill="#6BDA7E"/>
<path id="Vector 29" d="M34.5353 228.675C32.7655 228.675 31.1491 228.332 29.6862 227.644C28.2418 226.958 27.0948 226.02 26.2462 224.838C25.4155 223.653 25 222.351 25 220.932C25 219.51 25.4155 218.208 26.2462 217.026C27.0948 215.841 28.2506 214.905 29.7135 214.217C31.1762 213.529 32.8014 213.186 34.5893 213.186C36.3772 213.186 37.9934 213.522 39.4382 214.193C40.9009 214.867 42.0476 215.796 42.8784 216.982C43.709 218.152 44.1244 219.454 44.1244 220.888C44.1244 222.321 43.7001 223.636 42.8511 224.838C42.0025 226.02 40.8467 226.958 39.3838 227.644C37.9211 228.332 36.305 228.675 34.5353 228.675ZM34.5353 227.69C36.0883 227.69 37.4968 227.39 38.7609 226.792C40.025 226.191 41.0183 225.37 41.7405 224.332C42.4812 223.293 42.8511 222.145 42.8511 220.888C42.8511 219.63 42.49 218.489 41.7676 217.466C41.0634 216.44 40.0792 215.635 38.8151 215.049C37.5691 214.464 36.1605 214.172 34.5893 214.172C33.0361 214.172 31.6186 214.473 30.3364 215.074C29.0723 215.673 28.0791 216.491 27.3566 217.53C26.6344 218.555 26.2733 219.689 26.2733 220.932C26.2733 222.175 26.6344 223.316 27.3566 224.354C28.0791 225.38 29.0723 226.191 30.3364 226.792C31.6005 227.39 33.0002 227.69 34.5353 227.69ZM34.833 225.452C33.7315 225.452 32.7472 225.26 31.8804 224.879C31.0137 224.5 30.3364 223.968 29.8487 223.28C29.3614 222.59 29.1175 221.809 29.1175 220.932C29.1175 220.052 29.3614 219.27 29.8487 218.582C30.3364 217.896 31.0137 217.361 31.8804 216.982C32.7472 216.601 33.7315 216.41 34.833 216.41C35.7721 216.41 36.63 216.571 37.4066 216.893C38.183 217.215 38.788 217.648 39.2213 218.188L37.6772 219.088C37.0272 218.298 36.0701 217.903 34.806 217.903C33.7585 217.903 32.8917 218.182 32.2056 218.737C31.5194 219.292 31.1762 220.024 31.1762 220.932C31.1762 221.838 31.5194 222.569 32.2056 223.124C32.8917 223.68 33.7585 223.958 34.806 223.958C36.0701 223.958 37.0272 223.564 37.6772 222.776L39.2213 223.653C38.788 224.208 38.183 224.646 37.4066 224.968C36.63 225.291 35.7721 225.452 34.833 225.452ZM73.1176 228.611L73.0907 217.42L66.2367 226.746H64.9908L58.1374 217.486V228.611H55.5369V213.251H57.7582L65.6679 224.047L73.4699 213.251H75.6911L75.7182 228.611H73.1176ZM94.0042 222.861C94.0042 223.022 93.9862 223.234 93.9501 223.498H82.3022C82.4647 224.523 83.0154 225.349 83.9545 225.979C84.9117 226.593 86.0943 226.9 87.5032 226.9C89.2187 226.9 90.6002 226.431 91.6474 225.495L93.0832 226.856C92.4332 227.47 91.6203 227.938 90.6453 228.26C89.6882 228.582 88.6137 228.744 87.4218 228.744C85.9047 228.744 84.5594 228.493 83.3858 227.997C82.212 227.483 81.3 226.774 80.6498 225.869C80.0176 224.961 79.7017 223.937 79.7017 222.797C79.7017 221.669 80.0088 220.651 80.6227 219.747C81.2548 218.84 82.1127 218.136 83.196 217.64C84.2976 217.126 85.5348 216.872 86.907 216.872C88.2796 216.872 89.4986 217.126 90.5641 217.64C91.6474 218.136 92.4872 218.84 93.0832 219.747C93.6973 220.651 94.0042 221.692 94.0042 222.861ZM86.907 218.65C85.661 218.65 84.6136 218.955 83.7649 219.571C82.9342 220.185 82.4467 220.991 82.3022 221.984H91.5122C91.3677 221.004 90.871 220.206 90.0222 219.592C89.1916 218.963 88.153 218.65 86.907 218.65ZM100.108 218.934C100.56 218.26 101.228 217.75 102.113 217.397C102.998 217.047 104.072 216.872 105.336 216.872V218.912C105.192 218.896 104.993 218.891 104.74 218.891C103.332 218.891 102.221 219.234 101.408 219.922C100.614 220.594 100.216 221.559 100.216 222.817V228.611H97.616V216.982H100.108V218.934ZM114.557 228.744C113.13 228.744 111.848 228.488 110.71 227.974C109.572 227.462 108.679 226.761 108.029 225.869C107.396 224.961 107.08 223.937 107.08 222.797C107.08 221.656 107.396 220.638 108.029 219.747C108.679 218.84 109.572 218.136 110.71 217.64C111.848 217.126 113.13 216.872 114.557 216.872C115.984 216.872 117.257 217.126 118.376 217.64C119.514 218.136 120.399 218.84 121.031 219.747C121.681 220.638 122.007 221.656 122.007 222.797C122.007 223.937 121.681 224.961 121.031 225.869C120.399 226.761 119.514 227.462 118.376 227.974C117.257 228.488 115.984 228.744 114.557 228.744ZM114.557 226.9C115.477 226.9 116.3 226.731 117.022 226.394C117.762 226.045 118.341 225.562 118.755 224.948C119.171 224.318 119.379 223.602 119.379 222.797C119.379 221.991 119.171 221.282 118.755 220.668C118.341 220.039 117.762 219.556 117.022 219.219C116.3 218.883 115.477 218.714 114.557 218.714C113.636 218.714 112.804 218.883 112.064 219.219C111.342 219.556 110.765 220.039 110.331 220.668C109.915 221.282 109.707 221.991 109.707 222.797C109.707 223.602 109.915 224.318 110.331 224.948C110.765 225.562 111.342 226.045 112.064 226.394C112.804 226.731 113.636 226.9 114.557 226.9ZM133.256 213.251H141.248C143.252 213.251 145.032 213.573 146.584 214.217C148.136 214.862 149.337 215.766 150.187 216.937C151.053 218.093 151.486 219.425 151.486 220.932C151.486 222.437 151.053 223.776 150.187 224.948C149.337 226.102 148.136 227 146.584 227.644C145.032 228.289 143.252 228.611 141.248 228.611H133.256V213.251ZM141.085 226.702C142.62 226.702 143.966 226.46 145.122 225.979C146.295 225.495 147.198 224.821 147.83 223.958C148.462 223.081 148.778 222.073 148.778 220.932C148.778 219.791 148.462 218.788 147.83 217.924C147.198 217.047 146.295 216.366 145.122 215.885C143.966 215.402 142.62 215.159 141.085 215.159H135.965V226.702H141.085ZM155.257 216.982H157.857V228.611H155.257V216.982ZM156.558 214.744C156.051 214.744 155.627 214.611 155.284 214.348C154.958 214.085 154.795 213.762 154.795 213.382C154.795 213.001 154.958 212.682 155.284 212.417C155.627 212.14 156.051 212 156.558 212C157.062 212 157.478 212.131 157.804 212.394C158.145 212.644 158.318 212.959 158.318 213.34C158.318 213.734 158.145 214.069 157.804 214.348C157.478 214.611 157.062 214.744 156.558 214.744ZM176.558 216.982V227.03C176.558 229.064 175.934 230.563 174.69 231.529C173.442 232.509 171.583 233 169.106 233C167.754 233 166.461 232.847 165.234 232.539C164.006 232.246 163.013 231.821 162.255 231.266L163.501 229.642C164.169 230.112 164.989 230.476 165.966 230.739C166.959 231.016 167.978 231.156 169.026 231.156C170.704 231.156 171.942 230.834 172.737 230.19C173.55 229.547 173.956 228.567 173.956 227.25V226.329C173.344 226.928 172.584 227.381 171.681 227.69C170.796 227.984 169.831 228.128 168.783 228.128C167.411 228.128 166.163 227.894 165.044 227.425C163.943 226.943 163.077 226.278 162.443 225.429C161.812 224.567 161.496 223.587 161.496 222.488C161.496 221.392 161.812 220.418 162.443 219.571C163.077 218.709 163.943 218.042 165.044 217.574C166.163 217.105 167.411 216.872 168.783 216.872C169.866 216.872 170.867 217.033 171.789 217.356C172.729 217.678 173.497 218.152 174.093 218.781V216.982H176.558ZM169.081 226.284C170.019 226.284 170.861 226.123 171.601 225.802C172.358 225.48 172.945 225.035 173.359 224.464C173.795 223.879 174.011 223.221 174.011 222.488C174.011 221.364 173.55 220.456 172.631 219.768C171.709 219.065 170.525 218.714 169.081 218.714C167.619 218.714 166.427 219.065 165.505 219.768C164.583 220.456 164.123 221.364 164.123 222.488C164.123 223.221 164.331 223.879 164.746 224.464C165.179 225.035 165.766 225.48 166.508 225.802C167.265 226.123 168.123 226.284 169.081 226.284ZM181.524 216.982H184.124V228.611H181.524V216.982ZM182.825 214.744C182.32 214.744 181.896 214.611 181.551 214.348C181.227 214.085 181.064 213.762 181.064 213.382C181.064 213.001 181.227 212.682 181.551 212.417C181.896 212.14 182.32 212 182.825 212C183.331 212 183.745 212.131 184.071 212.394C184.412 212.644 184.585 212.959 184.585 213.34C184.585 213.734 184.412 214.069 184.071 214.348C183.745 214.611 183.331 214.744 182.825 214.744ZM197.165 227.932C196.784 228.194 196.313 228.399 195.754 228.545C195.195 228.675 194.618 228.744 194.021 228.744C192.577 228.744 191.458 228.429 190.663 227.798C189.866 227.171 189.47 226.27 189.47 225.099V218.714H187.032V216.982H189.47V214.435H192.07V216.982H196.188V218.714H192.07V225.012C192.07 225.641 192.261 226.123 192.641 226.46C193.038 226.797 193.597 226.966 194.319 226.966C195.114 226.966 195.791 226.782 196.351 226.418L197.165 227.932ZM205.536 216.872C207.522 216.872 209.039 217.267 210.087 218.057C211.152 218.845 211.684 220.024 211.684 221.589V228.611H209.219V227.076C208.786 227.616 208.163 228.033 207.349 228.327C206.556 228.603 205.606 228.744 204.507 228.744C202.9 228.744 201.608 228.429 200.631 227.798C199.675 227.171 199.196 226.342 199.196 225.319C199.196 224.296 199.658 223.475 200.576 222.861C201.499 222.234 202.961 221.919 204.966 221.919H209.084V221.5C209.084 220.594 208.758 219.901 208.108 219.418C207.459 218.934 206.501 218.692 205.237 218.692C204.389 218.692 203.557 218.809 202.745 219.044C201.932 219.264 201.245 219.562 200.686 219.943L199.603 218.364C200.343 217.881 201.228 217.517 202.258 217.267C203.286 217.003 204.38 216.872 205.536 216.872ZM204.939 227.119C205.932 227.119 206.79 226.943 207.512 226.593C208.234 226.227 208.758 225.715 209.084 225.057V223.433H205.074C202.872 223.433 201.771 224.032 201.771 225.232C201.771 225.817 202.048 226.278 202.609 226.613C203.171 226.953 203.946 227.119 204.939 227.119ZM216.497 212.33H219.099V228.611H216.497V212.33ZM237.241 228.785C235.814 228.785 234.434 228.611 233.098 228.26C231.779 227.894 230.741 227.424 229.983 226.856L230.984 225.143C231.706 225.672 232.629 226.102 233.747 226.439C234.886 226.761 236.052 226.922 237.241 226.922C238.813 226.922 239.986 226.71 240.762 226.284C241.539 225.846 241.929 225.27 241.929 224.551C241.929 224.027 241.712 223.602 241.278 223.28C240.864 222.943 240.338 222.687 239.708 222.512C239.093 222.334 238.218 222.139 237.08 221.919C235.653 221.641 234.497 221.364 233.612 221.083C232.745 220.807 231.995 220.382 231.365 219.812C230.751 219.226 230.442 218.445 230.442 217.466C230.442 216.645 230.705 215.906 231.228 215.248C231.771 214.591 232.582 214.062 233.667 213.668C234.748 213.272 236.095 213.076 237.702 213.076C238.823 213.076 239.924 213.192 241.007 213.425C242.092 213.662 243.021 213.997 243.798 214.435L242.903 216.19C242.108 215.783 241.26 215.474 240.357 215.269C239.453 215.049 238.568 214.939 237.702 214.939C236.167 214.939 235.013 215.167 234.236 215.622C233.477 216.075 233.098 216.66 233.098 217.376C233.098 217.903 233.314 218.335 233.747 218.671C234.181 218.993 234.715 219.249 235.345 219.438C235.997 219.613 236.872 219.804 237.975 220.011C239.4 220.287 240.548 220.566 241.413 220.843C242.281 221.121 243.021 221.546 243.635 222.114C244.267 222.687 244.585 223.454 244.585 224.421C244.585 225.224 244.312 225.963 243.77 226.636C243.229 227.296 242.406 227.822 241.305 228.217C240.202 228.598 238.85 228.785 237.241 228.785ZM255.773 216.872C257.163 216.872 258.411 217.119 259.512 217.619C260.613 218.116 261.471 218.809 262.085 219.702C262.719 220.594 263.033 221.625 263.033 222.797C263.033 223.968 262.719 225.006 262.085 225.91C261.471 226.805 260.613 227.5 259.512 227.997C258.411 228.493 257.163 228.744 255.773 228.744C254.745 228.744 253.795 228.582 252.93 228.26C252.08 227.938 251.358 227.47 250.763 226.856V232.869H248.163V216.982H250.655V218.824C251.232 218.182 251.964 217.699 252.849 217.376C253.734 217.039 254.708 216.872 255.773 216.872ZM255.556 226.9C256.478 226.9 257.298 226.731 258.02 226.394C258.762 226.045 259.339 225.562 259.755 224.948C260.189 224.318 260.405 223.602 260.405 222.797C260.405 221.991 260.189 221.282 259.755 220.668C259.339 220.039 258.762 219.556 258.02 219.219C257.298 218.883 256.478 218.714 255.556 218.714C254.653 218.714 253.832 218.891 253.092 219.239C252.37 219.579 251.791 220.052 251.358 220.668C250.943 221.282 250.735 221.991 250.735 222.797C250.735 223.602 250.943 224.318 251.358 224.948C251.774 225.562 252.351 226.045 253.092 226.394C253.832 226.731 254.653 226.9 255.556 226.9ZM271.721 216.872C273.707 216.872 275.222 217.267 276.27 218.057C277.336 218.845 277.872 220.024 277.872 221.589V228.611H275.405V227.076C274.971 227.616 274.347 228.033 273.537 228.327C272.74 228.603 271.794 228.744 270.691 228.744C269.083 228.744 267.792 228.429 266.819 227.798C265.861 227.171 265.384 226.342 265.384 225.319C265.384 224.296 265.841 223.475 266.764 222.861C267.684 222.234 269.148 221.919 271.152 221.919H275.269V221.5C275.269 220.594 274.944 219.901 274.294 219.418C273.644 218.934 272.687 218.692 271.423 218.692C270.573 218.692 269.743 218.809 268.93 219.044C268.118 219.264 267.433 219.562 266.872 219.943L265.788 218.364C266.53 217.881 267.415 217.517 268.444 217.267C269.474 217.003 270.565 216.872 271.721 216.872ZM271.125 227.119C272.12 227.119 272.977 226.943 273.699 226.593C274.422 226.227 274.944 225.715 275.269 225.057V223.433H271.262C269.056 223.433 267.955 224.032 267.955 225.232C267.955 225.817 268.236 226.278 268.795 226.613C269.354 226.953 270.131 227.119 271.125 227.119ZM289.019 228.744C287.559 228.744 286.246 228.488 285.092 227.974C283.954 227.462 283.061 226.761 282.409 225.869C281.76 224.961 281.436 223.937 281.436 222.797C281.436 221.656 281.76 220.638 282.409 219.747C283.061 218.84 283.954 218.136 285.092 217.64C286.246 217.126 287.559 216.872 289.019 216.872C290.32 216.872 291.476 217.085 292.487 217.509C293.517 217.932 294.31 218.548 294.872 219.349L292.893 220.382C292.442 219.827 291.883 219.41 291.215 219.131C290.546 218.853 289.804 218.714 288.994 218.714C288.054 218.714 287.206 218.883 286.446 219.219C285.706 219.556 285.12 220.039 284.686 220.668C284.27 221.282 284.062 221.991 284.062 222.797C284.062 223.615 284.27 224.339 284.686 224.968C285.12 225.582 285.706 226.058 286.446 226.394C287.206 226.731 288.054 226.9 288.994 226.9C289.804 226.9 290.546 226.761 291.215 226.483C291.883 226.206 292.442 225.787 292.893 225.232L294.872 226.24C294.31 227.045 293.517 227.669 292.487 228.107C291.476 228.531 290.32 228.744 289.019 228.744ZM311 222.861C311 223.022 310.982 223.234 310.947 223.498H299.299C299.462 224.523 300.012 225.349 300.952 225.979C301.907 226.593 303.091 226.9 304.498 226.9C306.215 226.9 307.595 226.431 308.643 225.495L310.078 226.856C309.43 227.47 308.615 227.938 307.642 228.26C306.682 228.582 305.611 228.744 304.418 228.744C302.9 228.744 301.554 228.493 300.381 227.997C299.207 227.483 298.296 226.774 297.647 225.869C297.013 224.961 296.699 223.937 296.699 222.797C296.699 221.669 297.003 220.651 297.619 219.747C298.251 218.84 299.109 218.136 300.192 217.64C301.293 217.126 302.532 216.872 303.901 216.872C305.275 216.872 306.496 217.126 307.562 217.64C308.643 218.136 309.485 218.84 310.078 219.747C310.692 220.651 311 221.692 311 222.861ZM303.901 218.65C302.657 218.65 301.609 218.955 300.761 219.571C299.929 220.185 299.442 220.991 299.299 221.984H308.508C308.364 221.004 307.866 220.206 307.018 219.592C306.188 218.963 305.15 218.65 303.901 218.65Z" fill="white"/>
<path id="Vector 30" d="M31.1403 115.316V125H29.0068V115.316H24.1227V125H22V113.118H24.1227V115.215C24.1371 114.926 24.202 114.654 24.3176 114.401C24.4331 114.139 24.5847 113.917 24.7723 113.732C24.9674 113.537 25.1912 113.389 25.4438 113.285C25.6965 113.173 25.9673 113.118 26.256 113.118H29.0068C29.2883 113.118 29.5556 113.173 29.8082 113.285C30.0609 113.389 30.2848 113.537 30.4797 113.732C30.6747 113.917 30.8298 114.139 30.9453 114.401C31.068 114.654 31.133 114.926 31.1403 115.215C31.1547 114.926 31.2161 114.654 31.3244 114.401C31.4398 114.139 31.5914 113.917 31.7793 113.732C31.9742 113.537 32.198 113.389 32.4506 113.285C32.7034 113.173 32.974 113.118 33.263 113.118H36.0136C36.3096 113.118 36.5876 113.178 36.8475 113.296C37.1073 113.407 37.3311 113.563 37.5188 113.764C37.7139 113.958 37.8655 114.188 37.9737 114.456C38.0893 114.724 38.147 115.01 38.147 115.316V125H36.0136V115.316H31.1403ZM56.4709 122.713C57.5032 122.713 58.2974 122.425 58.8534 121.854C59.4093 121.28 59.6873 120.463 59.6873 119.399V114.601C59.6873 114.081 59.6152 113.616 59.4708 113.207C59.3262 112.798 59.1133 112.452 58.8318 112.169C58.5574 111.878 58.2216 111.659 57.8245 111.511C57.4276 111.362 56.9762 111.287 56.4709 111.287H50.7961V122.713H56.4709ZM48.5761 125V109H56.4709C57.301 109 58.0484 109.135 58.7127 109.403C59.384 109.663 59.9544 110.038 60.4237 110.53C60.9002 111.013 61.2648 111.601 61.5174 112.293C61.7774 112.985 61.9074 113.753 61.9074 114.601V119.399C61.9074 120.247 61.7774 121.017 61.5174 121.709C61.2648 122.399 60.9002 122.992 60.4237 123.483C59.9544 123.967 59.384 124.34 58.7127 124.609C58.0484 124.87 57.301 125 56.4709 125H48.5761ZM78.8665 122.802V120.047H73.8091C73.5131 120.047 73.2351 119.99 72.9754 119.878C72.7155 119.76 72.488 119.604 72.2929 119.411C72.1053 119.209 71.9536 118.975 71.8382 118.707C71.7298 118.439 71.6758 118.153 71.6758 117.848V115.316C71.6758 115.01 71.7298 114.724 71.8382 114.456C71.9536 114.188 72.1053 113.958 72.2929 113.764C72.488 113.563 72.7155 113.407 72.9754 113.296C73.2351 113.178 73.5131 113.118 73.8091 113.118H80.5561V115.316H73.8091V117.848H78.8665C79.1627 117.848 79.437 117.908 79.6896 118.027C79.9496 118.139 80.1769 118.295 80.372 118.494C80.5669 118.689 80.7185 118.92 80.8268 119.186C80.9423 119.454 81 119.742 81 120.047V122.802C81 123.108 80.9423 123.393 80.8268 123.662C80.7185 123.93 80.5669 124.163 80.372 124.365C80.1769 124.558 79.9496 124.712 79.6896 124.833C79.437 124.943 79.1627 125 78.8665 125H71.6758V122.802H78.8665Z" fill="white"/>
<g id="undraw dev productivity umsq (1) 1">
<path id="Vector" d="M497.449 618.029C497.449 618.029 492.582 619.449 484.669 621.461C467.174 625.93 434.799 633.342 407.365 634.822C383.744 636.112 363.785 633.011 360.135 619.884C358.57 614.24 360.789 609.597 365.626 605.781C380.064 594.38 417.774 590.295 447.683 588.892C456.13 588.5 463.942 588.318 470.444 588.248C481.488 588.126 488.727 588.318 488.727 588.318L488.902 588.892L497.449 618.029Z" fill="#A0616A"/>
<path id="Vector 2" d="M415.718 659.796C396.924 679.621 319.336 638.089 292.198 622.602C286.287 619.231 282.769 617.097 282.769 617.097L307.596 588.892L315.46 579.965C315.46 579.965 322.496 583.144 332.894 588.318C333.273 588.51 333.651 588.7 334.039 588.892C343.007 593.379 354.264 599.241 365.626 605.781C381.3 614.814 397.149 625.119 407.365 634.822C417.355 644.309 421.947 653.219 415.718 659.796Z" fill="#A0616A"/>
<g id="user">
<path id="Vector 3" d="M398.372 241.621C439.897 241.321 473.275 212.402 472.923 177.027C472.571 141.652 438.621 113.219 397.096 113.519C355.569 113.819 322.189 142.739 322.542 178.113C322.896 213.488 356.844 241.92 398.372 241.621Z" fill="#FED6DB"/>
<path id="Vector 4" d="M341.933 210.001C341.933 210.001 357.003 300.87 335.311 311.239C313.618 321.607 465.098 321.441 465.098 321.441C465.098 321.441 430.532 242.782 445.547 218.537L341.933 210.001Z" fill="#FED6DB"/>
<path id="Vector 5" d="M575.708 321.102L563.596 370.057L537.989 473.631L537.248 479.298L528.707 544.908L523.027 588.495L519.218 617.774C494.398 628.866 476.407 636.533 476.407 636.533C476.407 636.533 474.785 629.906 472.196 621.431C454.746 626.026 422.446 633.672 395.028 635.35C405.114 644.765 409.791 653.642 403.632 660.262C385.034 680.223 307.036 639.253 279.744 623.962C279.149 627.674 278.948 631.426 279.139 635.169L258.237 621.713L259.981 590.395L262.921 537.403L266.615 470.949C265.214 468.114 264.033 465.205 263.082 462.237C256.53 443.016 248.427 404.599 242.185 372.379C237.163 346.449 233.365 324.533 232.563 319.87C232.455 319.261 232.401 318.948 232.401 318.948L346.928 274.845C355.257 290.927 393.456 295.503 393.456 295.503C425.043 293.418 449.675 279.043 449.675 279.043L575.708 321.102Z" fill="#3B6978"/>
<path id="Vector 6" d="M334.578 117.436L320.473 112.743C320.473 112.743 349.593 84.9626 390.517 87.0645L378.905 76.3599C378.905 76.3599 406.928 66.5678 432.74 91.5542C446.308 104.689 462.009 120.13 471.875 137.581L486.931 137.471L480.765 149.304L502.876 160.931L480.281 158.977C481.69 165.422 481.961 172.009 481.087 178.522C480.184 185.039 476.345 191 470.379 195.149C470.379 195.149 452.638 164.532 452.589 159.737L452.709 171.723C452.709 171.723 438.544 161.037 438.471 153.845L430.887 162.291L426.922 149.134L379.764 162.661L387.326 151.818L357.965 155.626L369.338 142.357C369.338 142.357 336.261 158.18 335.117 171.374C333.969 184.569 324.366 197.132 324.366 197.132C324.366 197.132 297.695 135.683 334.578 117.436Z" fill="#3B6978"/>
<path id="Vector 7" d="M659.671 545.156C652.083 552.284 633.211 563.073 610.32 574.771C601.805 579.119 592.739 583.6 583.488 588.058C561.413 598.696 538.295 609.246 519.218 617.774C494.398 628.866 476.407 636.533 476.407 636.533C476.407 636.533 474.785 629.906 472.196 621.431C468.728 610.088 463.53 595.431 458.202 588.963C458.015 588.738 457.83 588.53 457.642 588.323C456.091 586.618 454.538 585.626 453.015 585.637L528.707 544.908L561.419 527.303L537.248 479.298L506.933 419.081L524.382 370.34L541.923 321.347L575.708 321.102C575.708 321.102 587.1 341.82 601.692 370.723C603.874 375.045 606.127 379.55 608.423 384.201C638.457 444.962 675.992 529.838 659.671 545.156Z" fill="#3B6978"/>
<path id="Vector 8" d="M320.097 589.386C317.323 589.395 314.554 589.608 311.821 590.02C288.349 593.63 281.596 611.806 279.744 623.962C279.149 627.675 278.948 631.426 279.141 635.168L258.237 621.713L250.622 616.812C232.358 611.535 216.034 602.044 201.853 590.814C189.547 580.898 178.488 569.917 168.856 558.049C159.261 546.349 150.69 534.067 143.212 521.299C141.125 517.736 139.983 513.825 139.867 509.845C139.751 505.864 140.665 501.912 142.543 498.263L167.773 449.258L204.649 377.632C204.908 375.932 205.195 374.269 205.509 372.644C212.601 336.182 232.409 319.871 232.409 319.871L247.664 319.761L258.393 372.262L271.722 437.489L263.082 462.236L243.118 519.392L262.919 537.403L320.097 589.386Z" fill="#3B6978"/>
<path id="Vector 9" d="M335.184 436.609L348.225 449.569C353.07 448.784 358.132 447.859 363.342 446.82L359.597 436.609L368.756 445.711C423.969 434.143 492.409 411.652 492.409 411.652C492.409 411.652 418.521 416.267 363.356 406C338.947 401.458 313.834 411.764 303.818 431.262C297.996 442.595 298.911 452.414 319.559 452.414C326.535 452.313 333.493 451.757 340.371 450.747L335.184 436.609Z" fill="#FF8108"/>
</g>
<path id="Vector 10" d="M647.486 649.169V654.457C647.491 655.907 647.174 657.347 646.555 658.699C646.281 659.301 645.949 659.885 645.563 660.441C644.344 662.183 642.614 663.625 640.544 664.628C638.476 665.63 636.134 666.155 633.753 666.154H177.142C174.762 666.155 172.422 665.63 170.351 664.628C168.28 663.625 166.551 662.183 165.332 660.441C164.948 659.885 164.616 659.301 164.341 658.699C163.724 657.347 163.407 655.907 163.41 654.457V649.169C163.41 647.633 163.765 646.113 164.456 644.691C165.144 643.272 166.157 641.984 167.433 640.897C168.706 639.811 170.222 638.948 171.886 638.36C173.554 637.772 175.339 637.469 177.142 637.471H203.462V635.007C203.462 634.941 203.478 634.878 203.506 634.818C203.536 634.759 203.576 634.706 203.631 634.66C203.684 634.616 203.746 634.579 203.816 634.555C203.885 634.531 203.96 634.519 204.034 634.519H217.767C217.843 634.519 217.918 634.531 217.989 634.555C218.057 634.579 218.12 634.616 218.174 634.66C218.226 634.706 218.269 634.759 218.297 634.818C218.327 634.878 218.339 634.941 218.339 635.007V637.471H226.92V635.007C226.92 634.941 226.934 634.878 226.964 634.818C226.991 634.759 227.034 634.706 227.086 634.66C227.141 634.616 227.204 634.579 227.273 634.555C227.343 634.531 227.417 634.519 227.492 634.519H241.225C241.301 634.519 241.375 634.531 241.444 634.555C241.514 634.579 241.576 634.616 241.63 634.66C241.684 634.706 241.725 634.759 241.754 634.818C241.782 634.878 241.797 634.941 241.797 635.007V637.471H250.385V635.007C250.385 634.941 250.402 634.878 250.431 634.818C250.459 634.759 250.501 634.706 250.554 634.66C250.607 634.616 250.671 634.579 250.74 634.555C250.81 634.531 250.885 634.519 250.96 634.519H264.692C264.766 634.519 264.841 634.531 264.912 634.555C264.981 634.579 265.044 634.616 265.096 634.66C265.15 634.706 265.193 634.759 265.222 634.818C265.25 634.878 265.264 634.941 265.264 635.007V637.471H273.843V635.007C273.843 634.941 273.859 634.878 273.887 634.818C273.916 634.759 273.957 634.706 274.011 634.66C274.064 634.616 274.127 634.579 274.197 634.555C274.266 634.531 274.341 634.519 274.415 634.519H288.148C288.224 634.519 288.298 634.531 288.368 634.555C288.437 634.579 288.5 634.616 288.554 634.66C288.606 634.706 288.65 634.759 288.677 634.818C288.707 634.878 288.721 634.941 288.721 635.007V637.471H297.301V635.007C297.301 634.941 297.315 634.878 297.344 634.818C297.372 634.759 297.415 634.706 297.467 634.66C297.521 634.616 297.584 634.579 297.653 634.555C297.724 634.531 297.798 634.519 297.873 634.519H311.604C311.681 634.519 311.756 634.531 311.825 634.555C311.895 634.579 311.956 634.616 312.01 634.66C312.064 634.706 312.106 634.759 312.135 634.818C312.163 634.878 312.178 634.941 312.178 635.007V637.471H320.767V635.007C320.767 634.941 320.783 634.878 320.812 634.818C320.84 634.759 320.882 634.706 320.934 634.66C320.988 634.616 321.052 634.579 321.121 634.555C321.191 634.531 321.265 634.519 321.34 634.519H335.073C335.147 634.519 335.222 634.531 335.292 634.555C335.36 634.579 335.423 634.616 335.477 634.66C335.531 634.706 335.574 634.759 335.603 634.818C335.631 634.878 335.645 634.941 335.645 635.007V637.471H344.224V635.007C344.224 634.941 344.239 634.878 344.267 634.818C344.296 634.759 344.338 634.706 344.392 634.66C344.444 634.616 344.507 634.579 344.578 634.555C344.647 634.531 344.722 634.519 344.796 634.519H452.366C452.442 634.519 452.517 634.531 452.585 634.555C452.656 634.579 452.717 634.616 452.772 634.66C452.825 634.706 452.867 634.759 452.897 634.818C452.924 634.878 452.938 634.941 452.938 635.007V637.471H461.529V635.007C461.529 634.941 461.542 634.878 461.572 634.818C461.6 634.759 461.643 634.706 461.696 634.66C461.748 634.616 461.812 634.579 461.881 634.555C461.952 634.531 462.027 634.519 462.101 634.519H475.833C475.985 634.519 476.129 634.571 476.238 634.663C476.344 634.753 476.404 634.876 476.407 635.007V637.471H484.984V635.007C484.984 634.941 485.001 634.878 485.029 634.818C485.058 634.759 485.099 634.706 485.153 634.66C485.206 634.616 485.269 634.579 485.339 634.555C485.408 634.531 485.482 634.519 485.557 634.519H499.289C499.365 634.519 499.44 634.531 499.511 634.555C499.58 634.579 499.643 634.616 499.696 634.66C499.749 634.706 499.792 634.759 499.82 634.818C499.849 634.878 499.863 634.941 499.863 635.007V637.471H508.442V635.007C508.442 634.941 508.456 634.878 508.486 634.818C508.515 634.759 508.556 634.706 508.609 634.66C508.663 634.616 508.726 634.579 508.796 634.555C508.865 634.531 508.94 634.519 509.014 634.519H522.747C522.823 634.519 522.897 634.531 522.966 634.555C523.036 634.579 523.099 634.616 523.153 634.66C523.206 634.706 523.247 634.759 523.276 634.818C523.304 634.878 523.319 634.941 523.319 635.007V637.471H531.909V635.007C531.909 634.941 531.924 634.878 531.953 634.818C531.981 634.759 532.023 634.706 532.077 634.66C532.129 634.616 532.193 634.579 532.262 634.555C532.332 634.531 532.408 634.519 532.482 634.519H546.214C546.363 634.52 546.509 634.572 546.614 634.663C546.72 634.753 546.778 634.878 546.777 635.007V637.471H555.365V635.007C555.365 634.941 555.382 634.878 555.41 634.818C555.439 634.759 555.48 634.706 555.533 634.66C555.587 634.616 555.65 634.579 555.72 634.555C555.788 634.531 555.863 634.519 555.938 634.519H569.672C569.746 634.519 569.821 634.531 569.891 634.555C569.959 634.579 570.022 634.616 570.077 634.66C570.13 634.706 570.173 634.759 570.2 634.818C570.23 634.878 570.244 634.941 570.244 635.007V637.471H578.823V635.007C578.823 634.941 578.837 634.878 578.866 634.818C578.895 634.759 578.937 634.706 578.99 634.66C579.043 634.616 579.106 634.579 579.177 634.555C579.246 634.531 579.321 634.519 579.395 634.519H593.127C593.204 634.519 593.278 634.531 593.347 634.555C593.417 634.579 593.48 634.616 593.532 634.66C593.587 634.706 593.628 634.759 593.657 634.818C593.685 634.878 593.7 634.941 593.7 635.007V637.471H633.753C635.556 637.469 637.344 637.772 639.008 638.36C640.676 638.948 642.19 639.811 643.465 640.897C644.74 641.984 645.75 643.272 646.442 644.691C647.132 646.113 647.486 647.633 647.486 649.169Z" fill="#E0DEDE"/>
<path id="Vector 11" d="M780.259 658.699H30.7473V660.441H780.259V658.699Z" fill="white"/>
<path id="Vector 12" d="M610.72 426.503H440.527V423.515H363.355V426.503H192.461C189.408 426.503 186.48 427.537 184.321 429.375C182.162 431.216 180.947 433.71 180.947 436.311V634.832C180.947 637.433 182.162 639.928 184.321 641.767C186.48 643.605 189.408 644.638 192.461 644.638H610.72C613.772 644.638 616.7 643.605 618.859 641.767C621.019 639.928 622.232 637.433 622.232 634.832V436.311C622.232 435.024 621.935 433.747 621.355 432.558C620.777 431.368 619.929 430.287 618.859 429.375C617.791 428.466 616.521 427.744 615.125 427.251C613.728 426.758 612.231 426.503 610.72 426.503Z" fill="#E0DEDE"/>
<path id="Vector 14" d="M402.948 521.327C417.065 521.327 428.51 511.577 428.51 499.551C428.51 487.524 417.065 477.774 402.948 477.774C388.829 477.774 377.384 487.524 377.384 499.551C377.384 511.577 388.829 521.327 402.948 521.327Z" fill="#3B6978"/>
<path id="Vector 16" d="M62.3948 630.736V660.351H97.1605V630.736H62.3948ZM95.6473 659.062H63.8979V632.024H95.6473V659.062Z" fill="white"/>
<path id="Vector 15" d="M79.7735 649.899H51.1429V674.287H79.7735V649.899Z" fill="white"/>
<path id="Vector 18" d="M724.993 630.736V660.351H759.759V630.736H724.993ZM758.245 659.062H726.496V632.024H758.245V659.062Z" fill="white"/>
<path id="Vector 17" d="M742.372 649.899H713.74V674.287H742.372V649.899Z" fill="white"/>
<g id="leaf-left">
<path id="Vector 33" d="M122.87 596.356C123.825 624.187 104.735 634.385 80.7796 634.98C80.2234 634.994 79.6693 635.003 79.118 635.007C78.0075 635.014 76.9073 634.998 75.8173 634.958C54.1521 634.193 37.0023 624.395 36.115 598.514C35.1968 571.73 74.2231 536.929 77.1517 534.354L77.1568 534.352C77.2682 534.253 77.3255 534.204 77.3255 534.204C77.3255 534.204 121.917 568.529 122.87 596.356Z" fill="#6BDA7E"/>
<path id="Vector 34" d="M79.0555 630.762L94.2728 611.485L79.0863 632.837L79.118 635.007C78.0075 635.014 76.9072 634.998 75.8172 634.958L76.5719 607.076L76.5514 606.86L76.5791 606.819L76.6516 604.184L59.9867 583.572L76.6323 602.212L76.6916 602.768L77.2611 581.701L62.8671 560.332L77.3019 578L77.1516 534.354V534.208L77.1567 534.352L78.1117 568.751L91.2308 554.778L78.1547 571.714L78.4411 590.557L90.513 572.166L78.4861 593.329L78.6456 603.807L96.2013 578.188L78.6988 607.463L79.0555 630.762Z" fill="#3F3D56"/>
</g>
<g id="leaf-right">
<path id="Vector 35" d="M785.469 597.356C786.422 625.187 767.334 635.385 743.378 635.98C742.821 635.994 742.268 636.003 741.716 636.007C740.606 636.014 739.505 635.998 738.415 635.958C716.75 635.193 699.601 625.395 698.712 599.514C697.794 572.73 736.821 537.929 739.75 535.354L739.756 535.352C739.866 535.253 739.923 535.204 739.923 535.204C739.923 535.204 784.515 569.529 785.469 597.356Z" fill="#6BDA7E"/>
<path id="Vector 36" d="M741.654 631.762L756.872 612.485L741.686 633.837L741.716 636.007C740.606 636.014 739.505 635.998 738.415 635.958L739.169 608.076L739.15 607.86L739.179 607.819L739.25 605.184L722.586 584.572L739.231 603.212L739.289 603.768L739.859 582.701L725.466 561.332L739.9 579L739.75 535.354V535.208L739.756 535.352L740.71 569.751L753.829 555.778L740.754 572.714L741.04 591.557L753.112 573.166L741.085 594.329L741.245 604.807L758.799 579.188L741.298 608.463L741.654 631.762Z" fill="#3F3D56"/>
</g>
</g>
</g>
</g>
</svg>
