<svg width="150" height="80" viewBox="0 0 150 80" fill="none" xmlns="http://www.w3.org/2000/svg">
<path d="M110.64 26.3144H106.157V11.1629C106.157 7.68981 103.331 4.86436 99.858 4.86436H45.5868C42.1137 4.86436 39.2883 7.68981 39.2883 11.1629V49.6175C39.2883 51.0642 39.7983 52.4242 40.655 53.5076H37.028C35.9097 53.5074 35 54.421 35 55.5437V58.5168C35 61.3746 37.3076 63.6994 40.144 63.6994H69.2069C69.8542 63.6994 70.3788 63.1747 70.3788 62.5276C70.3788 61.8804 69.8542 61.3557 69.2069 61.3557H40.144C38.6 61.3557 37.3437 60.0823 37.3437 58.5168V55.8512H86.7125V61.3557H74.6756C74.0283 61.3557 73.5038 61.8804 73.5038 62.5276C73.5038 63.1747 74.0283 63.6994 74.6756 63.6994H86.7125V70.7757C86.7125 73.1799 88.6684 75.1358 91.0724 75.1358H110.64C113.044 75.1358 115 73.1799 115 70.7757C115 68.9847 115 31.9558 115 30.6746C115 28.2704 113.044 26.3144 110.64 26.3144V26.3144ZM86.7125 53.5074H44.8781C43.0215 53.167 41.6322 51.5099 41.6322 49.6173V11.1629C41.6322 8.98215 43.4062 7.2081 45.587 7.2081H99.8582C102.039 7.2081 103.813 8.98215 103.813 11.1629V26.3146H101.551C101.551 24.6757 101.551 13.3257 101.551 11.5271C101.551 10.3739 100.613 9.43543 99.4596 9.43543C99.1404 9.43543 47.615 9.43543 45.9857 9.43543C44.8323 9.43543 43.894 10.3737 43.894 11.5271V49.1957C43.894 50.349 44.8323 51.2874 45.9857 51.2874H86.7126V53.5074H86.7125ZM99.2073 11.779V14.8904H52.2168V11.779H99.2073ZM49.8731 11.779V14.8904H46.2376V11.779H49.8731ZM86.7125 30.6744V48.9436H46.2376V17.2342H99.2073V26.3144H91.0726C88.6684 26.3144 86.7125 28.2704 86.7125 30.6744ZM89.0562 35.2752H91.4126V37.6217H89.0562V35.2752ZM112.656 70.7757C112.656 71.8875 111.752 72.792 110.64 72.792H91.0724C89.9607 72.792 89.0562 71.8875 89.0562 70.7757V67.4171H112.656V70.7757ZM112.656 65.0733H89.0562C89.0562 55.507 89.0562 49.5218 89.0562 39.9655H112.656V65.0733ZM112.656 37.6217H93.7563V35.2752H112.656V37.6217ZM112.656 32.9314C111.46 32.9314 90.1228 32.9314 89.0562 32.9314V30.6744C89.0562 29.5627 89.9607 28.6582 91.0724 28.6582H110.64C111.752 28.6582 112.656 29.5627 112.656 30.6744V32.9314H112.656Z" fill="white"/>
<path d="M99.6107 71.0299H102.102C102.749 71.0299 103.274 70.5052 103.274 69.858C103.274 69.2108 102.749 68.6861 102.102 68.6861H99.6107C98.9633 68.6861 98.4388 69.2108 98.4388 69.858C98.4388 70.5052 98.9633 71.0299 99.6107 71.0299Z" fill="white"/>
<path d="M76.5891 31.1058L71.5603 27.6769C69.9689 26.5916 67.8077 27.7335 67.8077 29.6599V36.5178C67.8077 38.4438 69.9681 39.5862 71.5603 38.5008L76.5891 35.0719C77.9853 34.1199 77.985 32.0575 76.5891 31.1058ZM75.2686 33.1355L70.2399 36.5645C70.2247 36.5747 70.2117 36.5838 70.1816 36.5678C70.1516 36.5519 70.1516 36.5361 70.1516 36.5178V29.6599C70.1516 29.6416 70.1516 29.6258 70.1816 29.6099C70.1935 29.6036 70.2027 29.6011 70.2105 29.6011C70.2224 29.6011 70.2308 29.6069 70.2399 29.6132L75.2686 33.0421C75.2791 33.0492 75.2933 33.0589 75.2933 33.0888C75.2933 33.1188 75.2791 33.1285 75.2686 33.1355Z" fill="white"/>
<path d="M71.9413 22.1174C65.8916 22.1174 60.9697 27.0393 60.9697 33.0888C60.9697 39.1383 65.8916 44.0601 71.9413 44.0601C77.9909 44.0601 82.9126 39.1384 82.9126 33.0888C82.9126 27.0391 77.9909 22.1174 71.9413 22.1174V22.1174ZM71.9413 41.7166C67.1839 41.7166 63.3135 37.8463 63.3135 33.0889C63.3135 28.3316 67.1839 24.4613 71.9413 24.4613C76.6984 24.4613 80.5689 28.3318 80.5689 33.0889C80.5689 37.8461 76.6984 41.7166 71.9413 41.7166Z" fill="white"/>
<path d="M100.61 47.5273C99.1216 46.5123 97.1068 47.5847 97.1068 49.3789V55.3476C97.1068 57.1565 99.134 58.2057 100.61 57.199L104.987 54.2146C106.291 53.3259 106.29 51.4004 104.987 50.5117L100.61 47.5273ZM99.4505 55.1531V49.5732L103.542 52.3632L99.4505 55.1531Z" fill="white"/>
<path d="M100.856 62.064C104.934 62.064 108.602 59.4868 109.984 55.651C110.204 55.0421 109.888 54.3707 109.279 54.1513C108.67 53.9323 107.999 54.2478 107.779 54.8567C106.731 57.7657 103.949 59.7202 100.856 59.7202C96.7993 59.7202 93.499 56.4198 93.499 52.3632C93.499 48.3067 96.7993 45.0062 100.856 45.0062C104.079 45.0062 106.898 47.069 107.87 50.1392C108.066 50.7562 108.725 51.0979 109.341 50.9025C109.958 50.707 110.3 50.0484 110.105 49.4314C108.822 45.3828 105.105 42.6626 100.856 42.6626C95.5073 42.6626 91.1554 47.0145 91.1554 52.3634C91.1554 57.7123 95.5073 62.064 100.856 62.064Z" fill="white"/>
</svg>
