<svg width="150" height="80" viewBox="0 0 150 80" fill="none" xmlns="http://www.w3.org/2000/svg">
<path d="M55.9385 13.5024L59.568 16.4478C59.7848 16.6237 60.0453 16.7093 60.3043 16.7093C60.6446 16.7093 60.982 16.5616 61.2131 16.2768C61.6201 15.7753 61.5436 15.0388 61.0419 14.6318L60.0085 13.7932H90.773L89.7397 14.6318C89.2382 15.0386 89.1615 15.7753 89.5685 16.2768C89.7995 16.5616 90.137 16.7093 90.4772 16.7093C90.7362 16.7093 90.9968 16.6237 91.2135 16.4478L94.843 13.5024C95.1167 13.2803 95.2756 12.9468 95.2756 12.5944C95.2756 12.242 95.1167 11.9084 94.843 11.6862L91.0518 8.60984C90.55 8.20317 89.8136 8.27942 89.4068 8.78121C88.9998 9.28269 89.0763 10.0192 89.578 10.4263L90.8449 11.4544H59.9367L61.2036 10.4263C61.7051 10.0193 61.7818 9.28269 61.3748 8.78121C60.9678 8.27942 60.2314 8.20332 59.7297 8.60984L55.9385 11.6862C55.6649 11.9084 55.506 12.242 55.506 12.5944C55.506 12.9468 55.6649 13.2803 55.9385 13.5024V13.5024ZM92.2502 12.5944L92.1697 12.6597C92.17 12.6476 92.1716 12.6359 92.1716 12.6237C92.1716 12.591 92.1694 12.5587 92.1668 12.5267L92.2502 12.5944Z" fill="white"/>
<path d="M110.499 23.512H101.964C101.024 21.7271 99.1513 20.5066 96.9977 20.5066H53.6279C51.4743 20.5066 49.6014 21.7271 48.6616 23.512H39.5012C37.0192 23.512 35 25.5314 35 28.0134V64.1449C35 66.6269 37.0192 68.6461 39.5012 68.6461H48.6616C49.6014 70.4312 51.4743 71.6517 53.6279 71.6517H60.4665C61.1124 71.6517 61.636 71.1282 61.636 70.4822C61.636 69.8361 61.1124 69.3127 60.4665 69.3127H53.6279C51.8245 69.3127 50.3572 67.8455 50.3572 66.042V42.6806C50.3572 42.0345 49.8336 41.5111 49.1877 41.5111C48.5418 41.5111 48.0182 42.0345 48.0182 42.6806V50.465H43.8844L44.343 50.0064C44.7998 49.5496 44.7998 48.8092 44.343 48.3525C43.8863 47.8959 43.1458 47.8959 42.6892 48.3525L40.257 50.7847C40.0376 51.0041 39.9144 51.3015 39.9144 51.6118C39.9144 51.9221 40.0376 52.2193 40.257 52.4388L42.5855 54.7674C42.8138 54.9957 43.1132 55.1098 43.4124 55.1098C43.7117 55.1098 44.0111 54.9957 44.2393 54.7672C44.6961 54.3105 44.6961 53.57 44.2393 53.1134L43.9303 52.8045H48.0182V66.0426C48.0182 66.1315 48.0209 66.2197 48.0249 66.3075H39.5012C38.3089 66.3075 37.339 65.3375 37.339 64.1454V33.7925H48.0184V37.6965C48.0184 38.3425 48.542 38.866 49.1879 38.866C49.8337 38.866 50.3574 38.3425 50.3574 37.6965V34.5502H100.268V66.042C100.268 67.8453 98.8012 69.3127 96.9977 69.3127H65.4506C64.8047 69.3127 64.2811 69.8361 64.2811 70.4822C64.2811 71.1282 64.8047 71.6517 65.4506 71.6517H96.9977C99.1513 71.6517 101.024 70.431 101.964 68.6461H110.499C112.981 68.6461 115 66.6269 115 64.1449V28.0134C115 25.5314 112.981 23.512 110.499 23.512V23.512ZM110.499 25.851C111.691 25.851 112.661 26.8211 112.661 28.0132V31.4535H102.607V26.1161C102.607 26.0272 102.605 25.939 102.601 25.8512H110.499V25.851ZM53.6279 22.8456H96.9977C98.8011 22.8456 100.268 24.3128 100.268 26.1161V32.2114H50.3574V26.1161C50.3574 24.3128 51.8245 22.8456 53.6279 22.8456V22.8456ZM37.339 31.4535V28.0134C37.339 26.8211 38.3089 25.8512 39.5012 25.8512H48.0251C48.021 25.939 48.0184 26.0272 48.0184 26.1161V31.4535H37.339ZM110.499 66.3071H102.601C102.605 66.2193 102.607 66.131 102.607 66.0421V52.804H106.851L106.542 53.1129C106.085 53.5697 106.085 54.3102 106.542 54.7668C106.77 54.9952 107.07 55.1094 107.369 55.1094C107.668 55.1094 107.968 54.9952 108.196 54.7669L110.525 52.4384C110.744 52.219 110.867 51.9216 110.867 51.6113C110.867 51.301 110.744 51.0038 110.525 50.7842L108.092 48.352C107.636 47.8954 106.895 47.8954 106.439 48.352C105.982 48.8089 105.982 49.5493 106.439 50.006L106.897 50.4646H102.607V33.7925H112.661V64.1447C112.661 65.337 111.691 66.3071 110.499 66.3071V66.3071Z" fill="white"/>
<path d="M55.0952 28.7859H56.0787C56.7246 28.7859 57.2482 28.2624 57.2482 27.6164C57.2482 26.9703 56.7246 26.4469 56.0787 26.4469H55.0952C54.4493 26.4469 53.9257 26.9703 53.9257 27.6164C53.9257 28.2624 54.4493 28.7859 55.0952 28.7859Z" fill="white"/>
<path d="M62.5323 28.7859H63.5158C64.1616 28.7859 64.6853 28.2624 64.6853 27.6164C64.6853 26.9703 64.1616 26.4469 63.5158 26.4469H62.5323C61.8864 26.4469 61.3628 26.9703 61.3628 27.6164C61.3628 28.2624 61.8864 28.7859 62.5323 28.7859Z" fill="white"/>
<path d="M69.9694 28.7859H70.9528C71.5987 28.7859 72.1223 28.2624 72.1223 27.6164C72.1223 26.9703 71.5987 26.4469 70.9528 26.4469H69.9694C69.3235 26.4469 68.7999 26.9703 68.7999 27.6164C68.7999 28.2624 69.3235 28.7859 69.9694 28.7859Z" fill="white"/>
<path d="M55.8058 62.8516C55.9753 63.1485 56.2555 63.3409 56.5646 63.4106C57.0904 63.817 57.7474 64.0615 58.4617 64.0615H92.1639C93.0365 64.0615 93.8252 63.6992 94.3908 63.1187C94.4346 63.0771 94.4763 63.0325 94.514 62.9832C94.9871 62.4371 95.2757 61.7271 95.2757 60.9497V42.3194C95.2757 40.6037 93.8798 39.2078 92.1641 39.2078H85.9062C85.2603 39.2078 84.7367 39.7312 84.7367 40.3773C84.7367 41.0233 85.2603 41.5468 85.9062 41.5468H90.7604L75.2036 50.4293L59.6468 41.5468H80.9219C81.5678 41.5468 82.0914 41.0233 82.0914 40.3773C82.0914 39.7312 81.5678 39.2078 80.9219 39.2078H58.4617C57.3831 39.2078 56.4314 39.7599 55.873 40.5959C55.849 40.6291 55.8266 40.6639 55.8057 40.7002C55.7987 40.7127 55.7932 40.7255 55.7866 40.7379C55.5111 41.202 55.35 41.7417 55.35 42.3194V60.9498C55.35 61.4257 55.4606 61.8753 55.6524 62.279C55.6535 62.4736 55.7024 62.6705 55.8058 62.8516V62.8516ZM60.1419 61.7225L75.2036 53.1225L90.2653 61.7225H60.1419ZM92.9366 42.9974V60.5545L77.5621 51.776L92.9366 42.9974ZM57.689 60.4296V43.1222L72.8451 51.776L57.689 60.4296Z" fill="white"/>
</svg>
