<svg width="150" height="80" viewBox="0 0 150 80" fill="none" xmlns="http://www.w3.org/2000/svg">
<path d="M66.564 56.0628C66.2618 56.0628 65.9574 55.9589 65.709 55.7473L57.1624 48.4699C56.8676 48.2186 56.6981 47.8516 56.6981 47.4639C56.6981 47.0769 56.8684 46.7099 57.1624 46.4586L65.709 39.1812C66.264 38.708 67.0976 38.7751 67.5708 39.33C68.0432 39.8858 67.9769 40.7193 67.4211 41.1918L60.056 47.4639L67.4211 53.736C67.9769 54.2092 68.0432 55.0427 67.5708 55.5977C67.3091 55.9051 66.9377 56.0628 66.564 56.0628Z" fill="white"/>
<path d="M83.436 56.0628C83.0624 56.0628 82.6909 55.9051 82.43 55.5977C81.9568 55.0427 82.0239 54.2092 82.5789 53.736L89.944 47.4639L82.5789 41.1918C82.0239 40.7193 81.9568 39.8858 82.43 39.33C82.9024 38.7751 83.7367 38.708 84.291 39.1812L92.8376 46.4586C93.1324 46.7099 93.3019 47.0769 93.3019 47.4639C93.3019 47.8516 93.1324 48.2186 92.8376 48.4699L84.291 55.7473C84.0426 55.9589 83.7382 56.0628 83.436 56.0628V56.0628Z" fill="white"/>
<path d="M71.9745 61.5212C71.8839 61.5212 71.7925 61.5116 71.7003 61.4925C70.9869 61.3421 70.5299 60.6412 70.6803 59.9278L76.0068 34.6381C76.1572 33.9247 76.8573 33.4677 77.5715 33.6181C78.285 33.7684 78.7419 34.4686 78.5916 35.1828L73.2651 60.4724C73.1339 61.0945 72.5855 61.5212 71.9745 61.5212V61.5212Z" fill="white"/>
<path d="M106.132 75.2992H43.8679C38.9785 75.2992 35 71.3215 35 66.4313V13.5849C35 8.69546 38.9785 4.71698 43.8679 4.71698H106.132C111.022 4.71698 115 8.69546 115 13.5849V66.4313C115 71.3215 111.022 75.2992 106.132 75.2992ZM43.8679 7.35849C40.4348 7.35849 37.6415 10.1518 37.6415 13.5849V66.4313C37.6415 69.8644 40.4348 72.6577 43.8679 72.6577H106.132C109.565 72.6577 112.358 69.8644 112.358 66.4313V13.5849C112.358 10.1518 109.565 7.35849 106.132 7.35849H43.8679Z" fill="white"/>
<path d="M113.679 25.866H36.3208C35.5911 25.866 35 25.2749 35 24.5453C35 23.8163 35.5911 23.2245 36.3208 23.2245H113.679C114.409 23.2245 115 23.8163 115 24.5453C115 25.2749 114.409 25.866 113.679 25.866Z" fill="white"/>
<path d="M57.5663 19.546C55.2624 19.546 53.3867 17.6703 53.3867 15.3663C53.3867 13.0616 55.2624 11.1866 57.5663 11.1866C59.871 11.1866 61.746 13.0616 61.746 15.3663C61.746 17.6703 59.871 19.546 57.5663 19.546ZM57.5663 13.8281C56.7188 13.8281 56.0282 14.518 56.0282 15.3663C56.0282 16.2146 56.7188 16.9045 57.5663 16.9045C58.4147 16.9045 59.1045 16.2146 59.1045 15.3663C59.1045 14.518 58.4147 13.8281 57.5663 13.8281Z" fill="white"/>
<path d="M44.7244 19.5054C42.4197 19.5054 40.5447 17.6304 40.5447 15.3258C40.5447 13.0211 42.4197 11.1461 44.7244 11.1461C47.029 11.1461 48.904 13.0211 48.904 15.3258C48.904 17.6304 47.029 19.5054 44.7244 19.5054ZM44.7244 13.7876C43.8768 13.7876 43.1862 14.4782 43.1862 15.3258C43.1862 16.1741 43.8768 16.8639 44.7244 16.8639C45.5727 16.8639 46.2625 16.1741 46.2625 15.3258C46.2625 14.4782 45.5727 13.7876 44.7244 13.7876Z" fill="white"/>
<path d="M70.4083 19.5858C68.1044 19.5858 66.2294 17.7108 66.2294 15.4061C66.2294 13.1021 68.1044 11.2271 70.4083 11.2271C72.713 11.2271 74.588 13.1021 74.588 15.4061C74.588 17.7108 72.713 19.5858 70.4083 19.5858ZM70.4083 13.8679C69.5607 13.8679 68.8709 14.5578 68.8709 15.4061C68.8709 16.2544 69.5607 16.9443 70.4083 16.9443C71.2566 16.9443 71.9465 16.2544 71.9465 15.4061C71.9465 14.5578 71.2566 13.8679 70.4083 13.8679Z" fill="white"/>
</svg>
