<?xml version="1.0" encoding="iso-8859-1"?>
<!-- Generator: Adobe Illustrator 19.0.0, SVG Export Plug-In . SVG Version: 6.00 Build 0)  -->
<svg version="1.1" id="Layer_1" xmlns="http://www.w3.org/2000/svg" xmlns:xlink="http://www.w3.org/1999/xlink" x="0px" y="0px"
	 viewBox="0 0 450.608 450.608" style="enable-background:new 0 0 450.608 450.608;" xml:space="preserve">
<path style="fill:#FFF8EF;" d="M298.608,243.304l-92.8-23.2c-2.4-0.8-4.8,0-6.4,0.8l-56.8,38.4l48.8-72.8l80,29.6
	c2.4,0.8,4.8,0.8,7.2-0.8l56.8-37.6L298.608,243.304z"/>
<path style="fill:#2FB4C2;" d="M419.408,221.704c0,101.6-82.4,183.2-183.2,183.2c-19.2,0-37.6-3.2-56-8.8c-2.4-0.8-4.8-1.6-7.2-1.6
	c-3.2,0-6.4,0.8-8.8,1.6c-24.8,9.6-48.8,14.4-74.4,14.4c-9.6,0-20-0.8-30.4-2.4c13.6-16.8,24-36.8,31.2-59.2
	c2.4-7.2,1.6-15.2-3.2-20.8c-23.2-32-35.2-68.8-35.2-107.2c0-100,82.4-182.4,183.2-182.4
	C337.008,38.504,419.408,120.904,419.408,221.704z M365.808,156.904c1.6-3.2,1.6-7.2-1.6-9.6c-2.4-2.4-7.2-3.2-9.6-0.8l-81.6,53.6
	l-82.4-30.4c-3.2-1.6-7.2,0-9.6,3.2l-73.6,111.2c-2.4,3.2-1.6,7.2,0.8,10.4c1.6,1.6,3.2,2.4,5.6,2.4c1.6,0,3.2-0.8,4.8-1.6
	l87.2-58.4l94.4,23.2c3.2,0.8,7.2-0.8,8.8-4L365.808,156.904z"/>
<path style="fill:#42210B;" d="M191.408,169.704l82.4,30.4l81.6-53.6c3.2-2.4,7.2-1.6,9.6,0.8c2.4,2.4,3.2,6.4,1.6,9.6l-56.8,99.2
	c-1.6,3.2-5.6,4.8-8.8,4l-95.2-23.2l-87.2,58.4c-1.6,0.8-3.2,1.6-4.8,1.6c-2.4,0-4-0.8-5.6-2.4c-2.4-2.4-3.2-7.2-0.8-10.4l74.4-112
	C183.408,169.704,187.408,168.104,191.408,169.704z M199.408,221.704c1.6-1.6,4-1.6,6.4-0.8l92.8,22.4l36.8-64.8l-56.8,36.8
	c-2.4,1.6-4.8,1.6-7.2,0.8l-80-29.6l-48.8,72.8L199.408,221.704z"/>
<path style="fill:#1D9AAE;" d="M180.208,396.904c18.4,5.6,36.8,8.8,56,8.8c100.8,0,183.2-82.4,183.2-183.2s-82.4-183.2-183.2-183.2
	c-101.6-0.8-184,81.6-184,182.4c0,38.4,12,76,35.2,107.2c4,6.4,5.6,14.4,3.2,20.8c-7.2,22.4-17.6,42.4-31.2,59.2
	c10.4,1.6,20,2.4,30.4,2.4c25.6,0,49.6-4.8,74.4-14.4c3.2-0.8,5.6-1.6,8.8-1.6C175.408,395.304,177.808,396.104,180.208,396.904z
	 M73.808,338.504c-24.8-34.4-37.6-74.4-37.6-116.8c0-109.6,89.6-199.2,199.2-199.2c110.4,0,199.2,89.6,199.2,199.2
	c0,110.4-89.6,199.2-199.2,199.2c-20.8,0-40.8-3.2-60.8-9.6c-1.6-0.8-4-0.8-5.6,0c-46.4,18.4-92.8,20.8-142.4,7.2
	c22.4-18.4,38.4-43.2,48-73.6C75.408,343.304,75.408,340.104,73.808,338.504z"/>
<path style="fill:#42210B;" d="M235.408,437.704c-21.6,0-42.4-3.2-63.2-9.6c-28,10.4-55.2,16-84,16c-26.4,0-53.6-4.8-82.4-14.4
	c-3.2-0.8-4.8-3.2-5.6-6.4c-0.8-3.2,0.8-6.4,3.2-8c24.8-16,42.4-40,52.8-71.2c-23.2-36-36-78.4-36-122.4
	c0-118.4,96.8-215.2,215.2-215.2s215.2,96.8,215.2,215.2S354.608,437.704,235.408,437.704z M36.208,221.704
	c0,42.4,12.8,82.4,37.6,116.8c1.6,2.4,1.6,4.8,0.8,7.2c-9.6,30.4-25.6,55.2-48,73.6c49.6,13.6,96,11.2,142.4-7.2
	c1.6-0.8,4-0.8,5.6,0c20,6.4,40,9.6,60.8,9.6c110.4,0,199.2-89.6,199.2-199.2s-89.6-199.2-199.2-199.2
	C125.808,22.504,36.208,112.104,36.208,221.704z"/>
<g>
</g>
<g>
</g>
<g>
</g>
<g>
</g>
<g>
</g>
<g>
</g>
<g>
</g>
<g>
</g>
<g>
</g>
<g>
</g>
<g>
</g>
<g>
</g>
<g>
</g>
<g>
</g>
<g>
</g>
</svg>
